<svg width="132" height="44" viewBox="0 0 132 44" fill="none" xmlns="http://www.w3.org/2000/svg">
<path d="M11.6337 0.976562V1.16213L10.8629 1.3477V9.56983L11.6337 9.7554V9.94097H7.97946V9.7554L8.7503 9.56983V2.56104L5.7241 10.0694H5.33866L1.41317 2.56104V9.36999L2.44093 9.7554V9.94097H0V9.7554L1.02777 9.36999V1.3477L0.256931 1.16213V0.976562H1.85567C2.09834 0.976562 2.31246 1.00511 2.48376 1.06221C2.65505 1.11931 2.82637 1.19068 2.95484 1.2906C3.09758 1.39052 3.21178 1.50472 3.3117 1.63319C3.41162 1.76166 3.49728 1.91868 3.58292 2.0757L6.38072 7.42865L8.5219 2.0757C8.59327 1.89013 8.66466 1.73311 8.76459 1.60464C8.85023 1.47617 8.9644 1.36198 9.09287 1.26205C9.22134 1.16213 9.37839 1.09076 9.56396 1.04793C9.74953 1.00511 9.9779 0.976562 10.2634 0.976562H11.6337Z" fill="#292F36"/>
<path d="M16.202 3.36035C16.7302 3.36035 17.2155 3.43172 17.6295 3.58874C18.0434 3.74576 18.4003 3.97416 18.7001 4.25965C18.9998 4.55941 19.214 4.91627 19.371 5.33024C19.528 5.7442 19.5994 6.22953 19.5994 6.75769C19.5994 7.28585 19.528 7.77118 19.371 8.18514C19.214 8.5991 18.9856 8.95597 18.7001 9.25573C18.4003 9.5555 18.0434 9.76962 17.6295 9.92664C17.2155 10.0837 16.7302 10.155 16.202 10.155C15.6739 10.155 15.1885 10.0837 14.7746 9.92664C14.3606 9.76962 14.0038 9.54122 13.704 9.25573C13.4042 8.95597 13.1901 8.5991 13.0331 8.18514C12.8761 7.77118 12.8047 7.28585 12.8047 6.75769C12.8047 6.22953 12.8761 5.7442 13.0331 5.33024C13.1901 4.91627 13.4185 4.55941 13.704 4.25965C14.0038 3.95988 14.3606 3.74576 14.7746 3.58874C15.1885 3.43172 15.6596 3.36035 16.202 3.36035ZM16.202 9.91236C16.3448 9.91236 16.4875 9.86954 16.6445 9.76962C16.7873 9.6697 16.9157 9.51268 17.0299 9.27001C17.1441 9.02734 17.2441 8.7133 17.3154 8.31361C17.3868 7.89965 17.4296 7.38577 17.4296 6.77196C17.4296 6.14389 17.3868 5.63 17.3154 5.23031C17.2441 4.83063 17.1441 4.50231 17.0299 4.27392C16.9157 4.04553 16.7873 3.87424 16.6445 3.77431C16.5018 3.67439 16.3591 3.63157 16.202 3.63157C16.0593 3.63157 15.9165 3.67439 15.7595 3.77431C15.6168 3.87424 15.4883 4.03125 15.3741 4.27392C15.2599 4.51659 15.16 4.83063 15.0886 5.23031C15.0172 5.64428 14.9744 6.15816 14.9744 6.77196C14.9744 7.40004 15.0172 7.91393 15.0886 8.31361C15.16 8.7133 15.2599 9.04162 15.3741 9.27001C15.4883 9.4984 15.6168 9.6697 15.7595 9.76962C15.9023 9.85526 16.045 9.91236 16.202 9.91236Z" fill="#292F36"/>
<path d="M25.836 0.976562C26.6068 0.976562 26.9922 1.36197 26.9922 2.1328V9.58411L27.763 9.76968V9.95525H26.6068C26.2928 9.95525 26.0501 9.91242 25.8645 9.8125C25.6789 9.71258 25.5219 9.59838 25.422 9.48419C25.2935 9.34144 25.1936 9.17015 25.1365 8.99885C25.0223 9.22725 24.8796 9.41281 24.7083 9.58411C24.5655 9.72685 24.3657 9.85532 24.123 9.98379C23.8803 10.1123 23.5948 10.1694 23.2665 10.1694C22.8954 10.1694 22.5528 10.098 22.2387 9.95525C21.9104 9.8125 21.6392 9.59838 21.4108 9.31289C21.1825 9.0274 20.9826 8.67054 20.8542 8.25658C20.7114 7.82834 20.6543 7.343 20.6543 6.77202C20.6543 6.20104 20.7257 5.71571 20.8542 5.28747C20.9969 4.85924 21.1824 4.51665 21.4394 4.23116C21.682 3.94567 21.9818 3.73155 22.3244 3.5888C22.667 3.44606 23.0524 3.37468 23.4807 3.37468C23.7091 3.37468 23.9089 3.40323 24.0945 3.44606C24.28 3.50315 24.437 3.56025 24.5655 3.63163C24.7225 3.703 24.851 3.78865 24.9652 3.88857V1.39053L24.1944 1.20495V1.01939H25.836V0.976562ZM24.9367 4.2597C24.8367 4.15978 24.7511 4.07414 24.6369 4.00277C24.537 3.93139 24.4371 3.87429 24.3229 3.81719C24.2087 3.7601 24.0945 3.74582 23.966 3.74582C23.809 3.74582 23.6519 3.78865 23.5092 3.87429C23.3665 3.95994 23.2522 4.10269 23.1381 4.3168C23.0381 4.53092 22.9525 4.84496 22.8954 5.23037C22.8383 5.63006 22.8098 6.12967 22.8098 6.75775C22.8098 7.37155 22.8383 7.85689 22.8954 8.2423C22.9525 8.62771 23.0239 8.92748 23.1238 9.1416C23.2095 9.35571 23.3094 9.51274 23.4378 9.58411C23.552 9.65548 23.6662 9.6983 23.7804 9.6983C23.9803 9.6983 24.1515 9.64121 24.2943 9.54128C24.437 9.44136 24.5512 9.31289 24.6511 9.18442C24.7653 9.0274 24.8653 8.8561 24.9509 8.67054V4.2597H24.9367Z" fill="#292F36"/>
<path d="M32.0605 10.1697C30.9614 10.1697 30.1049 9.86991 29.5054 9.27038C28.8916 8.67085 28.5918 7.82865 28.5918 6.77234C28.5918 6.24418 28.6632 5.75885 28.8202 5.34488C28.9772 4.93092 29.1913 4.57406 29.4626 4.27429C29.7338 3.97453 30.0621 3.76041 30.4618 3.60339C30.8472 3.44637 31.2754 3.375 31.7465 3.375C32.2318 3.375 32.6601 3.44637 33.0312 3.57484C33.4166 3.71759 33.7306 3.90316 34.0019 4.13155C34.2731 4.35994 34.4729 4.63116 34.6157 4.9452C34.7584 5.25924 34.8298 5.58755 34.8298 5.94442C34.8298 6.05861 34.8298 6.17281 34.8155 6.25846C34.8012 6.3441 34.787 6.42975 34.7727 6.50112C34.7441 6.58677 34.7298 6.65814 34.7013 6.71524C34.3302 6.78661 33.9305 6.85799 33.5022 6.90081C33.1454 6.95791 32.7314 7.00073 32.2604 7.02928C31.7893 7.05783 31.304 7.08638 30.7901 7.08638C30.7901 7.61454 30.8329 8.05705 30.9043 8.41391C30.9756 8.77078 31.0898 9.05626 31.2183 9.25611C31.3611 9.47022 31.5181 9.61297 31.7036 9.69862C31.8892 9.78427 32.1034 9.82709 32.3175 9.82709C32.5744 9.82709 32.8171 9.78427 33.0454 9.68434C33.2738 9.58442 33.4737 9.47023 33.6307 9.31321C33.802 9.15619 33.9305 8.97062 34.0304 8.77078C34.1303 8.57093 34.1731 8.37109 34.1731 8.15697H34.4872C34.4872 8.41391 34.4301 8.65658 34.3159 8.89924C34.2017 9.14191 34.0304 9.35603 33.8163 9.5416C33.6022 9.72717 33.3452 9.86991 33.0454 9.98411C32.76 10.1126 32.4316 10.1697 32.0605 10.1697ZM30.7758 6.75806C31.0613 6.75806 31.3182 6.75807 31.5466 6.74379C31.775 6.72952 31.9606 6.71524 32.1176 6.70097C32.3032 6.68669 32.4459 6.65814 32.5744 6.64387C32.5887 6.55822 32.6172 6.4583 32.6315 6.35838C32.6458 6.25846 32.6601 6.15853 32.6743 6.04434C32.6886 5.93014 32.6886 5.80167 32.6886 5.6732C32.6886 5.28779 32.66 4.95947 32.6029 4.70253C32.5458 4.44559 32.4745 4.23147 32.3745 4.06018C32.2889 3.90316 32.189 3.77469 32.0605 3.71759C31.932 3.66049 31.8321 3.61767 31.7179 3.61767C31.6037 3.61767 31.4895 3.66049 31.3753 3.74614C31.2612 3.83179 31.1612 3.9888 31.0613 4.20292C30.9757 4.43132 30.89 4.74536 30.8329 5.15932C30.7758 5.57328 30.7758 6.10143 30.7758 6.75806Z" fill="#292F36"/>
<path d="M40.2265 3.8033C39.9695 3.8033 39.7412 3.8604 39.5413 3.96032C39.3415 4.06024 39.1702 4.18871 39.0274 4.31718C38.8704 4.4742 38.7419 4.6455 38.6134 4.83106V9.58449L39.3843 9.77005V9.95562H35.7871V9.77005L36.5579 9.58449V3.93177L35.7871 3.7462V3.56063H36.9433C37.2431 3.56063 37.4858 3.61773 37.6856 3.71765C37.8712 3.81757 38.0282 3.93177 38.1424 4.04596C38.2709 4.18871 38.3708 4.34573 38.4279 4.51702C38.5564 4.33145 38.7134 4.16016 38.8989 4.00314C39.056 3.87467 39.2558 3.76047 39.4985 3.64628C39.7412 3.53208 40.0124 3.48926 40.3407 3.48926C40.7975 3.48926 41.1401 3.60345 41.3685 3.8033C41.5969 4.01741 41.6967 4.31718 41.6967 4.70259C41.6967 4.98808 41.6111 5.23075 41.4398 5.40205C41.2685 5.57334 41.0259 5.65899 40.7404 5.65899C40.669 5.65899 40.6119 5.65899 40.5405 5.65899C40.4691 5.65899 40.4263 5.64471 40.3835 5.64471C40.3264 5.63044 40.2693 5.63044 40.2265 5.60189V3.8033Z" fill="#292F36"/>
<path d="M47.2208 5.47359C47.2208 5.18809 47.1923 4.93115 47.1352 4.71704C47.0781 4.50292 47.0067 4.33162 46.9068 4.20315C46.8212 4.06041 46.7212 3.96048 46.5928 3.90339C46.4786 3.84629 46.3643 3.80346 46.2501 3.80346C46.0503 3.80346 45.879 3.86056 45.7363 3.96049C45.5935 4.06041 45.4651 4.18888 45.3794 4.31735C45.2652 4.47437 45.1796 4.64566 45.0939 4.83123V9.58465L45.8647 9.77022V9.95579H42.2676V9.77022L43.0384 9.58465V3.93194L42.2676 3.74637V3.5608H43.4238C43.7236 3.5608 43.9662 3.6179 44.1661 3.71782C44.3516 3.81774 44.5087 3.93194 44.6229 4.04613C44.7513 4.18888 44.8512 4.3459 44.9083 4.51719C45.0225 4.30307 45.1653 4.10323 45.3366 3.93194C45.4793 3.78919 45.6792 3.66072 45.9076 3.53225C46.136 3.40378 46.4357 3.34668 46.7783 3.34668C47.1494 3.34668 47.4921 3.40378 47.7918 3.53225C48.1059 3.64645 48.3628 3.81774 48.5769 4.00331C48.791 4.20315 48.9623 4.41727 49.0908 4.67421C49.2193 4.93115 49.2763 5.18809 49.2763 5.45931V9.57038L50.0472 9.75595V9.94152H48.3771C47.6063 9.94152 47.2208 9.5561 47.2208 8.78528V5.47359Z" fill="#292F36"/>
<path d="M1.35547 18.9764V18.4482H11.2762V18.9764L9.19217 19.5046V30.2818H16.672V19.5046L14.5879 18.9764V18.4482H24.5088V18.9764L22.4247 19.5046V41.7728L24.5088 42.301V42.8292H14.5879V42.2867L16.672 41.7586V31.1526H9.19217V41.7586L11.2762 42.2867V42.8149H1.35547V42.2867L3.43954 41.7586V19.4903L1.35547 18.9764Z" fill="#292F36"/>
<path d="M36.8424 24.8867C38.2842 24.8867 39.5689 25.1008 40.7108 25.5148C41.8528 25.9288 42.8092 26.5426 43.6085 27.3419C44.4079 28.1413 45.0217 29.112 45.4357 30.2539C45.8496 31.3959 46.0638 32.6806 46.0638 34.1223C46.0638 35.5641 45.8496 36.8488 45.4357 37.9907C45.0217 39.1327 44.4079 40.0891 43.6085 40.8885C42.8092 41.6878 41.8385 42.3017 40.7108 42.7156C39.5689 43.1296 38.2842 43.3437 36.8424 43.3437C35.4007 43.3437 34.116 43.1296 32.974 42.7156C31.8321 42.3017 30.8757 41.6878 30.0763 40.8885C29.2769 40.0891 28.6631 39.1184 28.2492 37.9907C27.8352 36.8488 27.6211 35.5641 27.6211 34.1223C27.6211 32.6806 27.8352 31.3959 28.2492 30.2539C28.6631 29.112 29.2769 28.1556 30.0763 27.3419C30.8757 26.5283 31.8464 25.9288 32.974 25.5148C34.116 25.1008 35.4007 24.8867 36.8424 24.8867ZM36.8424 42.63C37.2421 42.63 37.6276 42.5015 38.0272 42.2446C38.4269 41.9876 38.7695 41.5451 39.0835 40.9027C39.3976 40.2604 39.6545 39.3896 39.8544 38.2905C40.0542 37.1914 40.1541 35.7925 40.1541 34.0938C40.1541 32.3951 40.0542 30.9962 39.8544 29.8971C39.6545 28.7979 39.3976 27.9272 39.0835 27.2848C38.7695 26.6425 38.4127 26.2 38.0272 25.943C37.6418 25.6861 37.2421 25.5576 36.8424 25.5576C36.4427 25.5576 36.0574 25.6861 35.6577 25.943C35.258 26.2 34.9154 26.6425 34.6013 27.2848C34.2873 27.9272 34.0304 28.7979 33.8305 29.8971C33.6307 30.9962 33.5307 32.3951 33.5307 34.0938C33.5307 35.7925 33.6307 37.1914 33.8305 38.2905C34.0304 39.3896 34.2873 40.2604 34.6013 40.9027C34.9154 41.5451 35.2723 41.9876 35.6577 42.2446C36.0574 42.5015 36.4427 42.63 36.8424 42.63Z" fill="#292F36"/>
<path d="M72.1443 30.6243C72.1443 29.7964 72.073 29.0827 71.9302 28.526C71.7875 27.9693 71.6162 27.4982 71.3878 27.1414C71.1594 26.7845 70.9167 26.5275 70.6598 26.3562C70.3885 26.1992 70.1316 26.1136 69.8747 26.1136C69.4322 26.1136 69.0467 26.2563 68.7042 26.5418C68.3616 26.8273 68.0761 27.1556 67.8191 27.4982C67.5479 27.9122 67.291 28.3832 67.0911 28.8828V41.7585L69.1895 42.2866V42.8148H59.4542V42.2866L61.5384 41.7585V30.6243C61.5384 29.7964 61.4669 29.0827 61.3242 28.526C61.1815 27.9693 61.0102 27.4982 60.7818 27.1414C60.5534 26.7845 60.3107 26.5275 60.0538 26.3562C59.7826 26.1992 59.5256 26.1136 59.2687 26.1136C58.8262 26.1136 58.4408 26.2563 58.0982 26.5418C57.7556 26.8273 57.4701 27.1556 57.2131 27.4982C56.9276 27.9122 56.685 28.3832 56.4852 28.8828V41.7585L58.5692 42.2866V42.8148H48.834V42.2866L50.9181 41.7585V26.4562L48.834 25.928V25.3999H51.9601C52.7738 25.3999 53.4447 25.5426 53.9585 25.8138C54.4867 26.085 54.8864 26.3991 55.2005 26.7131C55.543 27.1128 55.8 27.541 55.9713 27.9978C56.271 27.4126 56.6422 26.8987 57.0847 26.4276C57.4844 26.0279 57.9697 25.6711 58.5407 25.3428C59.126 25.0144 59.8254 24.8574 60.6676 24.8574C62.0522 24.8574 63.2655 25.1715 64.2648 25.7853C65.2782 26.3991 66.0491 27.1984 66.5773 28.1691C66.877 27.5696 67.2482 27.0272 67.6907 26.5275C68.0904 26.1136 68.5757 25.7282 69.1467 25.3856C69.7319 25.043 70.4314 24.8574 71.2736 24.8574C72.2299 24.8574 73.0864 25.0144 73.8858 25.3142C74.6709 25.614 75.3561 26.0279 75.9271 26.5561C76.498 27.0843 76.9405 27.6838 77.2546 28.3832C77.5686 29.0827 77.7257 29.825 77.7257 30.6101V41.7442L79.8097 42.2724V42.8005H75.2847C73.2006 42.8005 72.1586 41.7585 72.1586 39.6744V30.6243H72.1443Z" fill="#292F36"/>
<path d="M91.2852 43.329C88.3161 43.329 86.0037 42.5154 84.3621 40.8738C82.7205 39.2323 81.8926 36.9911 81.8926 34.1077C81.8926 32.666 82.1067 31.3813 82.5207 30.2393C82.9346 29.0973 83.5199 28.1409 84.2622 27.3273C85.0044 26.5279 85.9037 25.9141 86.9601 25.5001C88.0164 25.0862 89.1726 24.8721 90.4145 24.8721C91.7135 24.8721 92.884 25.0576 93.9118 25.4288C94.9395 25.7999 95.8245 26.2995 96.5383 26.9276C97.252 27.5557 97.8087 28.298 98.1941 29.1402C98.5795 29.9824 98.7651 30.8816 98.7651 31.838C98.7651 32.1664 98.7508 32.4518 98.708 32.6945C98.6652 32.9372 98.6366 33.1513 98.5795 33.3369C98.5081 33.5653 98.451 33.7651 98.4082 33.9221C97.3805 34.1362 96.3099 34.3075 95.1679 34.4503C94.1973 34.593 93.0695 34.7072 91.7991 34.8214C90.5287 34.9213 89.1869 34.9784 87.8023 34.9784C87.8023 36.4202 87.9022 37.6192 88.1163 38.5756C88.3304 39.532 88.6159 40.3028 88.987 40.8738C89.3582 41.4448 89.8007 41.8445 90.3145 42.0872C90.8284 42.3298 91.3852 42.4583 91.9847 42.4583C92.6841 42.4583 93.3408 42.3298 93.9546 42.0729C94.5684 41.8159 95.0965 41.4734 95.5533 41.0451C96.0101 40.6169 96.367 40.1315 96.6382 39.5891C96.9094 39.0467 97.0379 38.49 97.0379 37.9333H97.9086C97.9086 38.6327 97.7516 39.3036 97.4376 39.946C97.1235 40.6026 96.681 41.1736 96.0958 41.6732C95.5105 42.1728 94.8253 42.5725 94.0117 42.8723C93.1838 43.172 92.2702 43.329 91.2852 43.329ZM87.8023 34.1077C88.5874 34.1077 89.2868 34.0934 89.8863 34.0506C90.4859 34.0078 90.9998 33.9792 91.4137 33.9364C91.899 33.8936 92.313 33.8365 92.6699 33.7651C92.7127 33.5367 92.7698 33.2798 92.8412 32.9943C92.884 32.7373 92.9268 32.4518 92.9553 32.1378C92.9839 31.8238 93.0125 31.4955 93.0125 31.1529C93.0125 30.1108 92.9268 29.2401 92.7698 28.5263C92.6127 27.8126 92.3986 27.2416 92.156 26.7991C91.9133 26.3566 91.6278 26.0426 91.3281 25.857C91.014 25.6714 90.7 25.5715 90.4002 25.5715C90.1004 25.5715 89.7864 25.6857 89.4724 25.8998C89.1583 26.1282 88.8871 26.5422 88.6444 27.156C88.4018 27.7698 88.2019 28.6405 88.0307 29.754C87.8879 30.8674 87.8023 32.3234 87.8023 34.1077Z" fill="#292F36"/>
<path d="M115.853 42.4584V28.3409L103.377 18.4629V42.4584H115.853Z" fill="#292F36"/>
<path d="M131.282 42.4584V28.3409L119.006 18.4629V42.4584H131.282Z" fill="#292F36"/>
</svg>
