<svg width="103" height="103" viewBox="0 0 103 103" fill="none" xmlns="http://www.w3.org/2000/svg">
<path d="M51.4423 101.606C79.303 101.606 101.889 79.0207 101.889 51.1601C101.889 23.2994 79.303 0.713867 51.4423 0.713867C23.5816 0.713867 0.996094 23.2994 0.996094 51.1601C0.996094 79.0207 23.5816 101.606 51.4423 101.606Z" fill="white"/>
<path d="M51.4431 102.32C23.2367 102.32 0.283203 79.3664 0.283203 51.1599C0.283203 22.9535 23.2367 0 51.4431 0C79.6496 0 102.603 22.9535 102.603 51.1599C102.603 79.3664 79.6496 102.32 51.4431 102.32ZM51.4431 1.42745C24.0218 1.42745 1.71066 23.7386 1.71066 51.1599C1.71066 78.5813 24.0218 100.892 51.4431 100.892C78.8645 100.892 101.176 78.5813 101.176 51.1599C101.176 23.7386 78.8645 1.42745 51.4431 1.42745Z" fill="#292F36"/>
<path d="M58.6371 5.83827C58.9796 5.86682 59.2794 5.88109 59.5221 5.88109L59.4935 6.10949C59.0938 6.16658 58.7513 6.46635 58.48 7.03733L55.0827 13.832L54.9828 13.8177L54.8971 13.8035L52.7417 6.22368C52.5989 5.72407 52.3563 5.45286 52.0137 5.41003L52.0422 5.18164C52.3563 5.23874 52.7702 5.28156 53.2841 5.33866C53.955 5.39576 54.4546 5.43858 54.7829 5.43858L54.7544 5.66697C54.4546 5.6527 54.2405 5.66697 54.112 5.7098C53.9836 5.75262 53.9122 5.86682 53.8979 6.00956C53.8836 6.13803 53.9122 6.3236 53.9836 6.56627L55.568 12.3617L57.9233 7.62259C58.1232 7.23717 58.2231 6.92313 58.2516 6.69474C58.2802 6.45207 58.2088 6.26651 58.0518 6.13803C57.8948 6.00956 57.6378 5.93819 57.2952 5.89537L57.3238 5.66697C57.7378 5.73835 58.1803 5.79545 58.6371 5.83827Z" fill="#292F36"/>
<path d="M68.2291 8.84997C68.0864 8.84997 67.9722 8.90707 67.8865 9.02127C67.8009 9.13546 67.701 9.32103 67.601 9.59225L65.5598 15.0166C65.4599 15.2878 65.4028 15.5019 65.4028 15.6446C65.4028 15.7874 65.4456 15.9016 65.5455 15.9872C65.6454 16.0729 65.831 16.1728 66.0879 16.287L66.0023 16.5011C65.674 16.3584 65.2172 16.1728 64.6319 15.9444C64.0039 15.7017 63.5328 15.5447 63.2188 15.4448L63.3044 15.2307C63.5756 15.3163 63.7755 15.3592 63.9039 15.3592C64.0324 15.3592 64.1609 15.3021 64.2465 15.1879C64.3322 15.0737 64.4321 14.8881 64.532 14.6169L66.5733 9.19256C66.6732 8.92134 66.7303 8.70723 66.7303 8.56448C66.7303 8.42173 66.6875 8.30754 66.5875 8.22189C66.4876 8.13624 66.302 8.03632 66.0451 7.92213L66.1308 7.70801C66.4305 7.83648 66.8873 8.02205 67.5154 8.26471C68.1006 8.49311 68.5717 8.65013 68.9143 8.75005L68.8286 8.96417C68.5717 8.87852 68.3719 8.8357 68.2291 8.84997Z" fill="#292F36"/>
<path d="M80.9337 16.4015C80.791 16.373 80.6483 16.4158 80.5198 16.5014C80.3913 16.5871 80.2343 16.7584 80.063 17.001L75.9234 22.6109L75.7093 22.4539L76.266 13.4324L72.5974 18.3999C72.4261 18.6426 72.3119 18.8424 72.2548 18.9995C72.1977 19.1565 72.2263 19.2992 72.2977 19.442C72.369 19.5847 72.5403 19.7417 72.783 19.9416L72.6402 20.1272C72.4261 19.9416 72.1121 19.6989 71.6981 19.3849C71.327 19.1137 71.0272 18.8995 70.7988 18.7711L70.9416 18.5855C71.17 18.7425 71.3555 18.8282 71.4983 18.8424C71.641 18.871 71.7838 18.8282 71.9122 18.7425C72.0407 18.6426 72.1977 18.4856 72.369 18.2429L75.7378 13.6751C75.9091 13.4324 76.0233 13.2468 76.0661 13.1184C76.109 12.9899 76.0947 12.8614 76.0233 12.7472C75.9519 12.633 75.8092 12.4903 75.5808 12.3047L75.7235 12.1191C75.9091 12.2904 76.1946 12.5188 76.58 12.79C76.8655 13.0042 77.1082 13.1755 77.3366 13.3039L76.8798 20.8694L79.8489 16.844C80.0202 16.6013 80.1486 16.4015 80.1915 16.2445C80.2343 16.0875 80.22 15.9447 80.1486 15.802C80.0773 15.6592 79.906 15.4879 79.6633 15.3024L79.8061 15.1168C80.0202 15.3024 80.3342 15.545 80.7482 15.8591C81.1193 16.1303 81.4191 16.3444 81.6475 16.4729L81.5047 16.6584C81.2621 16.5157 81.0765 16.4158 80.9337 16.4015Z" fill="#292F36"/>
<path d="M85.716 22.8396C86.0871 22.5684 86.4725 22.2686 86.8865 21.8975C87.2434 22.4399 87.8715 23.3392 88.7708 24.6096C89.67 25.8658 90.3124 26.7508 90.6978 27.2647C90.2125 27.5502 89.7985 27.8071 89.4274 28.0641C89.1133 28.2925 88.8564 28.4923 88.6708 28.6493L88.5138 28.4352C88.9706 28.0355 89.2846 27.7072 89.4702 27.4645C89.6558 27.2219 89.7271 26.9649 89.7129 26.6937C89.6986 26.4225 89.5273 26.0942 89.2561 25.6945L88.8849 25.1806L83.4749 29.0347C83.218 29.2203 83.0324 29.3916 82.9467 29.5201C82.8611 29.6485 82.8325 29.8056 82.8896 29.9768C82.9325 30.1339 83.0609 30.3623 83.2465 30.6477L83.0609 30.7905C82.8468 30.4479 82.5185 29.9626 82.0903 29.3773C81.6335 28.735 81.2909 28.2782 81.0625 27.9927L81.2481 27.8499C81.4622 28.1212 81.6335 28.3067 81.7762 28.4066C81.919 28.5066 82.0617 28.5351 82.2187 28.4923C82.3758 28.4495 82.5899 28.3353 82.8468 28.1497L88.2569 24.2956L87.8857 23.7817C87.6002 23.382 87.3433 23.1393 87.1006 23.0251C86.858 22.911 86.5867 22.8967 86.3013 22.9966C86.0158 23.0965 85.6018 23.2821 85.0736 23.5819L84.9166 23.3677C85.1307 23.2535 85.3877 23.0822 85.716 22.8396Z" fill="#292F36"/>
<path d="M88.4558 42.6523L88.2275 42.7237C88.1418 42.4096 88.0276 42.0099 87.8563 41.5246C87.6422 40.8965 87.4709 40.4255 87.3424 40.1114L87.5708 40.04C87.6707 40.3113 87.7849 40.5111 87.8706 40.611C87.9705 40.711 88.099 40.7395 88.2417 40.6824C88.3702 40.6396 88.5272 40.5397 88.7128 40.3826L90.2973 39.0837L89.398 36.4143L88.0704 36.3572C87.6422 36.3287 87.3139 36.3572 87.0855 36.4429C86.8571 36.5285 86.7143 36.657 86.6573 36.8426C86.6144 37.0281 86.643 37.2993 86.7429 37.6277L86.5145 37.699C86.4003 37.2708 86.2576 36.8426 86.1148 36.4143C86.0006 36.086 85.9007 35.8148 85.8008 35.6007L86.0292 35.5293C86.229 35.8719 86.6573 36.0575 87.2853 36.0717L94.8794 36.4143L94.9365 36.5856L88.8841 41.6245C88.5129 41.9814 88.3702 42.3097 88.4558 42.6523ZM93.4091 36.5856L89.6692 36.4286L90.5114 38.9409L93.4091 36.5856Z" fill="#292F36"/>
<path d="M89.4974 53.5726C89.6401 53.5155 89.7115 53.4442 89.7115 53.3442C89.7115 53.2871 89.6972 53.2443 89.6687 53.2015C89.6401 53.1587 89.583 53.073 89.4974 52.9588C89.2832 52.6876 89.1262 52.4021 89.012 52.1166C88.8978 51.8311 88.8407 51.5028 88.8407 51.146C88.8265 50.3466 88.9835 49.6614 89.2975 49.0762C89.6258 48.4909 90.0826 48.0484 90.7107 47.7344C91.3245 47.4203 92.0668 47.2633 92.9375 47.249C93.8368 47.2347 94.6219 47.3775 95.2928 47.6915C95.9637 48.0056 96.4919 48.4338 96.863 49.0048C97.2342 49.5758 97.434 50.2181 97.434 50.9319C97.434 51.2459 97.4055 51.5314 97.3484 51.774C97.2913 52.0167 97.2056 52.2308 97.1057 52.4164C97.0058 52.602 96.8773 52.8161 96.706 53.0445C96.6346 53.1444 96.5918 53.2301 96.5918 53.2872C96.5918 53.4299 96.8345 53.5298 97.3055 53.5726V53.8439C96.8059 53.8153 95.9066 53.8153 94.6219 53.8439V53.5726C95.0359 53.5013 95.3785 53.4156 95.6497 53.33C95.9209 53.2443 96.1493 53.1159 96.3491 52.9588C96.6204 52.7304 96.8488 52.4307 97.0058 52.0595C97.1628 51.6884 97.2342 51.3173 97.2342 50.9176C97.2199 50.4037 97.0486 49.9612 96.706 49.5758C96.3634 49.1904 95.8781 48.9049 95.2643 48.6908C94.6362 48.4909 93.9225 48.391 93.0945 48.4053C92.1524 48.4195 91.3959 48.5337 90.7963 48.7478C90.1968 48.962 89.7686 49.276 89.4831 49.69C89.1976 50.1039 89.0691 50.6321 89.0834 51.2744C89.0977 51.7455 89.2261 52.1452 89.4688 52.4878C89.5687 52.6305 89.6544 52.7162 89.7543 52.759C89.84 52.8018 89.9684 52.8161 90.1254 52.8161L91.2531 52.8018C91.5814 52.8018 91.8098 52.759 91.9669 52.7019C92.1096 52.6448 92.2238 52.5306 92.2666 52.3593C92.3237 52.2023 92.3523 51.9453 92.3523 51.6028H92.5807C92.5664 51.9882 92.5521 52.5306 92.5664 53.2586C92.5807 53.801 92.5949 54.215 92.6235 54.4719H92.3951C92.3808 54.2864 92.338 54.1579 92.2952 54.0865C92.2523 54.0152 92.1524 53.9581 92.024 53.9295C91.8955 53.901 91.6814 53.8867 91.3816 53.901L89.0691 53.9438V53.7154C89.1976 53.6583 89.3546 53.6297 89.4974 53.5726Z" fill="#292F36"/>
<path d="M87.7998 65.7197C87.3858 65.5912 86.9005 65.4628 86.3438 65.3486C86.5293 64.849 86.8005 64.0068 87.1859 62.8077C87.6427 61.3802 87.971 60.2954 88.1709 59.5674L88.3993 59.6388C88.3279 59.91 88.2994 60.1098 88.2994 60.2526C88.3136 60.3953 88.3707 60.4952 88.4849 60.5809C88.5991 60.6665 88.799 60.7522 89.0702 60.8378L94.5944 62.5793C94.8799 62.665 95.0798 62.7078 95.2225 62.7078C95.3653 62.7078 95.4795 62.6507 95.5651 62.5365C95.6507 62.4223 95.7364 62.2367 95.8363 61.9798L96.0647 62.0512C95.8078 62.7792 95.4652 63.8497 95.0084 65.2772C94.6658 66.3621 94.4231 67.1472 94.3089 67.6182C93.8379 67.4184 93.4096 67.2471 93.01 67.1329C92.7245 67.0472 92.4818 66.9759 92.3105 66.9473L92.3961 66.6904C92.8958 66.7903 93.2812 66.8331 93.5381 66.8331C93.7951 66.8331 94.0092 66.7475 94.1805 66.5762C94.3518 66.4192 94.4945 66.1337 94.623 65.7483L94.9085 64.8204C94.9941 64.5492 95.0369 64.3494 95.0227 64.2209C95.0084 64.0924 94.9656 63.9782 94.8514 63.8926C94.7372 63.8069 94.5516 63.7213 94.2661 63.6356L91.6396 62.8077L91.4112 63.55C91.297 63.9211 91.3256 64.2066 91.5111 64.4064C91.6967 64.6063 91.8965 64.749 92.1249 64.849C92.3533 64.9489 92.4961 65.0203 92.5532 65.0488L92.4675 65.3057C92.1107 65.163 91.7681 65.0345 91.4255 64.9346L90.8973 64.7776C90.5262 64.6634 89.9838 64.5064 89.2986 64.3494L89.3842 64.0924C89.4413 64.1067 89.6269 64.1352 89.9409 64.2066C90.255 64.2637 90.5262 64.2352 90.7403 64.121C90.9544 64.0068 91.0972 63.7926 91.1971 63.4929L91.4255 62.7506L88.7419 61.9084C88.4564 61.8228 88.2565 61.7799 88.1138 61.7799C87.971 61.7799 87.8568 61.837 87.7855 61.9512C87.6998 62.0654 87.6142 62.251 87.5285 62.5222L87.2716 63.3359C87.1288 63.8069 87.0718 64.1781 87.1288 64.4493C87.1717 64.7348 87.3144 64.9632 87.5571 65.163C87.7998 65.3486 88.1709 65.5627 88.6705 65.7911L88.5849 66.048C88.4136 65.9196 88.1423 65.8339 87.7998 65.7197Z" fill="#292F36"/>
<path d="M83.7317 83.2344C83.7888 83.1059 83.7745 82.9775 83.7174 82.849C83.6603 82.7205 83.5175 82.5635 83.3034 82.3494L79.1067 78.3382C78.8926 78.1384 78.7213 78.0099 78.5928 77.9528C78.4644 77.8957 78.3359 77.8957 78.2074 77.9528C78.0789 78.0099 77.9219 78.1384 77.7221 78.3382L77.5508 78.1812C77.822 77.9386 78.1646 77.5817 78.6071 77.1392C79.0639 76.6538 79.4065 76.2827 79.6206 76.04L79.7919 76.1971C79.6063 76.4112 79.4921 76.5825 79.435 76.6967C79.3779 76.8251 79.3922 76.9536 79.4493 77.0821C79.5064 77.2106 79.6491 77.3676 79.8633 77.5817L84.06 81.5928C84.2741 81.7927 84.4454 81.9211 84.5739 81.9782C84.7023 82.0353 84.8308 82.0353 84.9593 81.9782C85.0877 81.9211 85.2448 81.7927 85.4446 81.5928L85.6159 81.7499C85.3732 81.964 85.0164 82.3208 84.5596 82.8062C84.1171 83.263 83.7888 83.6341 83.5604 83.9053L83.3891 83.7483C83.5604 83.5342 83.6746 83.3629 83.7317 83.2344Z" fill="#292F36"/>
<path d="M71.8401 91.9425C71.9258 91.814 71.9401 91.6855 71.9115 91.5285C71.883 91.3715 71.783 91.1717 71.626 90.9004L68.0859 84.8909L68.3143 84.7481L76.3937 88.7878L73.2676 83.4777C73.1106 83.2207 72.9821 83.0352 72.8536 82.9352C72.7252 82.8353 72.5824 82.7925 72.4254 82.8068C72.2684 82.821 72.0543 82.9067 71.783 83.0494L71.6546 82.8496C71.9115 82.7354 72.2541 82.5356 72.6966 82.2786C73.0963 82.0359 73.3961 81.8504 73.6102 81.6934L73.7244 81.8932C73.496 82.0359 73.339 82.1787 73.2676 82.3072C73.1819 82.4356 73.1677 82.5641 73.1962 82.7211C73.2248 82.8781 73.3247 83.078 73.4817 83.3492L76.3652 88.2454C76.5079 88.5023 76.6364 88.6736 76.7506 88.7593C76.8648 88.8449 76.979 88.8877 77.1217 88.8592C77.2502 88.8306 77.45 88.7593 77.6927 88.6308L77.8069 88.8306C77.5785 88.9448 77.2645 89.1161 76.8505 89.3588C76.5507 89.5301 76.2938 89.7014 76.0797 89.8441L69.2993 86.4611L71.8401 90.772C71.9972 91.0289 72.1256 91.2145 72.2541 91.3144C72.3683 91.4143 72.511 91.4571 72.6823 91.4429C72.8536 91.4286 73.0678 91.3429 73.339 91.2002L73.4532 91.4C73.1962 91.5142 72.8536 91.7141 72.4111 91.971C72.0114 92.2137 71.7117 92.3993 71.4976 92.5563L71.3834 92.3564C71.5975 92.1994 71.7545 92.0567 71.8401 91.9425Z" fill="#292F36"/>
<path d="M63.9897 93.8126C64.0896 94.2552 64.218 94.7405 64.3893 95.2544C63.747 95.3686 62.6764 95.597 61.1633 95.911C59.6502 96.2393 58.5939 96.482 57.9658 96.639C57.8944 96.0823 57.8231 95.597 57.7231 95.1545C57.6375 94.769 57.5661 94.455 57.4805 94.2266L57.7374 94.1695C57.923 94.7548 58.0943 95.1687 58.2513 95.4399C58.4083 95.7112 58.6082 95.8825 58.8651 95.9681C59.122 96.0538 59.4932 96.0395 59.9642 95.9396L60.578 95.8111L59.1791 89.3162C59.1078 89.0021 59.0364 88.7737 58.9365 88.6453C58.8366 88.5168 58.7224 88.4311 58.5511 88.4169C58.3798 88.3883 58.1228 88.4169 57.7802 88.474L57.7374 88.2456C58.1371 88.1885 58.7081 88.0743 59.4218 87.9173C60.1784 87.746 60.7493 87.6175 61.1062 87.5176L61.149 87.746C60.8064 87.8316 60.578 87.9173 60.4353 88.0029C60.2926 88.0886 60.2069 88.217 60.1784 88.374C60.1498 88.5311 60.1641 88.7737 60.2355 89.0878L61.6344 95.5827L62.2482 95.4542C62.7192 95.3543 63.0618 95.2116 63.2617 95.026C63.4615 94.8404 63.5757 94.5977 63.6042 94.298C63.6328 93.9982 63.6185 93.5414 63.5471 92.9419L63.8041 92.8848C63.8469 93.1132 63.904 93.4272 63.9897 93.8126Z" fill="#292F36"/>
<path d="M45.0468 89.8016C45.0896 89.359 45.1039 88.8594 45.1039 88.3027C45.632 88.3741 46.5171 88.4598 47.7732 88.5739C49.2578 88.7024 50.3854 88.8023 51.1563 88.8452L51.142 89.0736C50.8565 89.0593 50.6567 89.0736 50.5282 89.1164C50.3997 89.1592 50.2998 89.2306 50.2427 89.359C50.1856 89.4875 50.1428 89.7016 50.1142 89.9871L49.6003 95.7683C49.5718 96.0538 49.5861 96.2679 49.6146 96.4107C49.6432 96.5534 49.7288 96.6533 49.8573 96.7104C49.9858 96.7675 50.1856 96.8246 50.4568 96.8532L50.4425 97.0816C49.686 96.9959 48.5583 96.8817 47.0738 96.7533C45.9318 96.6533 45.1181 96.5962 44.6328 96.5677C44.7327 96.0681 44.8041 95.6113 44.8327 95.1973C44.8612 94.8976 44.8755 94.6549 44.8612 94.4693L45.1324 94.4979C45.1467 95.0118 45.1752 95.3829 45.2466 95.6398C45.3037 95.8968 45.4322 96.0824 45.632 96.2108C45.8176 96.3393 46.1316 96.4249 46.5313 96.4535L47.502 96.5391C47.7875 96.5677 47.9873 96.5534 48.1158 96.5249C48.2443 96.4963 48.3442 96.4107 48.4013 96.2822C48.4584 96.1537 48.5012 95.9396 48.5298 95.6541L48.7724 92.9134L48.0016 92.842C47.6162 92.8135 47.345 92.8991 47.188 93.1275C47.0452 93.3559 46.931 93.5843 46.8882 93.827C46.8311 94.0697 46.8025 94.2267 46.7883 94.298L46.5171 94.2695C46.5741 93.8841 46.617 93.5272 46.6598 93.1703L46.7026 92.6136C46.7312 92.214 46.7597 91.6715 46.7883 90.9578L47.0595 90.9863C47.0595 91.0434 47.0738 91.229 47.0738 91.5573C47.088 91.8856 47.1594 92.1426 47.3307 92.3139C47.4877 92.4994 47.7304 92.5994 48.0444 92.6279L48.8153 92.6993L49.0579 89.9015C49.0865 89.616 49.0722 89.4019 49.0436 89.2591C49.0151 89.1307 48.9295 89.0307 48.801 88.9736C48.6725 88.9165 48.4727 88.8737 48.2014 88.8452L47.345 88.7738C46.8596 88.731 46.4885 88.7595 46.2173 88.8737C45.9603 88.9736 45.7605 89.1735 45.6178 89.4447C45.475 89.7159 45.3608 90.1299 45.2466 90.6723L44.9754 90.6438C44.9754 90.4296 45.004 90.1441 45.0468 89.8016Z" fill="#292F36"/>
<path d="M33.8137 84.5055C34.0278 84.4627 34.2705 84.5055 34.5274 84.6197C34.8272 84.7482 35.0271 84.9338 35.1413 85.1764C35.2555 85.4334 35.2697 85.7903 35.1984 86.2613L34.9842 87.4318C34.9129 87.8458 34.87 88.1598 34.8558 88.4025C34.8415 88.6309 34.8986 88.845 34.9985 89.0306C35.0984 89.2161 35.284 89.3589 35.5552 89.4731L36.583 89.9013L37.625 87.4176C37.7392 87.1463 37.7963 86.9465 37.8106 86.8037C37.8249 86.661 37.7678 86.5468 37.6678 86.4469C37.5679 86.347 37.3966 86.247 37.1397 86.1328L37.2253 85.9187C37.5536 86.0757 37.9962 86.2756 38.5814 86.5183C39.1952 86.7752 39.6663 86.9608 39.9803 87.0607L39.8947 87.2748C39.6235 87.1749 39.4236 87.1321 39.2951 87.1178C39.1524 87.1178 39.0382 87.1606 38.9526 87.2748C38.8526 87.3747 38.7527 87.5603 38.6385 87.8315L36.3974 93.1845C36.2832 93.4557 36.2261 93.6555 36.2118 93.7983C36.1976 93.941 36.2547 94.0552 36.3546 94.1551C36.4545 94.2551 36.6258 94.355 36.8827 94.4834L36.7971 94.6976C36.4973 94.5548 36.0691 94.355 35.4981 94.1123C35.2126 93.9981 34.9129 93.8696 34.5703 93.7269C34.2277 93.5842 33.9993 93.4985 33.8708 93.4414C33.3141 93.1987 32.8716 92.9275 32.5433 92.5992C32.215 92.2709 32.0294 91.9283 31.9438 91.5572C31.8581 91.186 31.9009 90.8292 32.058 90.4723C32.1722 90.1868 32.3577 89.9299 32.6147 89.7015C32.8716 89.4731 33.1999 89.3018 33.5996 89.2161C33.9993 89.1305 34.4846 89.1448 35.0128 89.2732L34.8843 89.2019C34.5845 89.0163 34.3562 88.8307 34.2134 88.6309C34.0707 88.4453 33.9707 88.2312 33.9422 88.0028C33.8994 87.7744 33.9136 87.4889 33.9707 87.1463L34.1706 85.933C34.2134 85.6903 34.242 85.5048 34.242 85.362C34.242 85.2193 34.2277 85.1051 34.1849 85.0194C34.142 84.9338 34.0707 84.8624 33.9707 84.8339C33.8565 84.7768 33.7424 84.7768 33.6424 84.8053C33.5425 84.8339 33.3998 84.9052 33.2142 85.0052L33.1 84.8196C33.3569 84.6626 33.5996 84.5484 33.8137 84.5055ZM34.5274 89.5873C34.1849 89.6301 33.9136 89.7586 33.6995 89.9727C33.4854 90.1868 33.2998 90.4723 33.1428 90.8434C32.9002 91.4287 32.8431 91.9426 33.0001 92.3565C33.1571 92.7705 33.5425 93.1131 34.1849 93.3843C34.4133 93.4842 34.5845 93.5271 34.7273 93.5128C34.8558 93.5128 34.97 93.4557 35.0699 93.3415C35.1698 93.2273 35.2697 93.0417 35.3696 92.7848L36.4831 90.1297L35.7551 89.8299C35.284 89.6301 34.87 89.5445 34.5274 89.5873Z" fill="#292F36"/>
<path d="M22.6793 86.4463C22.8078 86.4891 22.9363 86.4605 23.0505 86.3892C23.1647 86.3178 23.3217 86.1608 23.5072 85.9324L27.0902 81.3645C27.2757 81.1361 27.3899 80.9506 27.4327 80.8221C27.4756 80.6936 27.4613 80.5651 27.3899 80.4509C27.3185 80.3368 27.1758 80.1797 26.9617 79.9942L27.1044 79.8086C27.3756 80.0513 27.7468 80.3653 28.2464 80.7507C28.7745 81.1647 29.1742 81.4644 29.4454 81.65L29.3027 81.8356C29.0743 81.6643 28.8887 81.5644 28.7603 81.5358C28.6318 81.493 28.5033 81.5073 28.3891 81.5929C28.2749 81.6643 28.1179 81.8213 27.9323 82.0497L24.3494 86.6175C24.1639 86.8459 24.0497 87.0315 24.0069 87.16C23.964 87.2885 23.9783 87.4169 24.0497 87.5311C24.121 87.6453 24.2638 87.8023 24.4779 87.9879L24.3352 88.1735C24.0925 87.9594 23.7071 87.6453 23.1789 87.2171C22.6793 86.8317 22.2796 86.5319 21.9941 86.3321L22.1369 86.1465C22.3796 86.3035 22.5508 86.4034 22.6793 86.4463Z" fill="#292F36"/>
<path d="M13.4576 76.2832C13.4005 75.6409 13.5432 74.9985 13.8716 74.3847C14.2141 73.7566 14.728 73.1999 15.4418 72.6717C16.1412 72.1721 16.8407 71.8438 17.5687 71.7154C18.2967 71.5869 18.9676 71.6297 19.5956 71.8724C20.2237 72.115 20.7519 72.529 21.1658 73.1143C21.6084 73.7138 21.851 74.3419 21.9081 74.9842C21.9652 75.6266 21.8225 76.2689 21.4942 76.8827C21.1516 77.5108 20.6377 78.0675 19.924 78.5957C19.2245 79.0953 18.5251 79.4236 17.797 79.5521C17.0833 79.6805 16.3981 79.6377 15.7701 79.3951C15.142 79.1524 14.6138 78.7384 14.1999 78.1674C13.7574 77.5536 13.5147 76.9256 13.4576 76.2832ZM15.5988 78.8241C16.0984 78.924 16.6694 78.8812 17.2974 78.6813C17.9255 78.4815 18.5536 78.1532 19.2102 77.6678C19.8669 77.1968 20.3807 76.6829 20.7376 76.1405C21.1087 75.598 21.3086 75.0556 21.3371 74.5417C21.38 74.0278 21.2515 73.571 20.9803 73.1856C20.6805 72.7859 20.2951 72.529 19.7812 72.4291C19.2816 72.3292 18.7106 72.372 18.0825 72.5718C17.4545 72.7717 16.8264 73.1 16.1698 73.571C15.5131 74.0421 14.9992 74.556 14.6424 75.1127C14.2712 75.6551 14.0714 76.1833 14.0286 76.7114C13.9857 77.2253 14.1142 77.6821 14.3854 78.0675C14.6852 78.4672 15.0849 78.7242 15.5988 78.8241Z" fill="#292F36"/>
<path d="M14.5567 59.0965C14.728 59.225 14.8565 59.4391 14.9421 59.7246C15.042 60.0243 15.0278 60.3098 14.9136 60.5525C14.7994 60.8094 14.5282 61.0521 14.1142 61.2948L13.0721 61.88C12.7153 62.0941 12.4441 62.2654 12.2585 62.4082C12.0729 62.5509 11.9445 62.7222 11.8731 62.9221C11.8017 63.1219 11.8017 63.3503 11.8874 63.6358L12.2157 64.7064L14.7851 63.907C15.0706 63.8214 15.2562 63.7357 15.3703 63.6501C15.4845 63.5644 15.5416 63.4502 15.5559 63.3218C15.5702 63.1933 15.5274 62.9792 15.456 62.708L15.6844 62.6366C15.77 62.9792 15.8985 63.4645 16.0984 64.064C16.2982 64.7064 16.4552 65.1774 16.5694 65.4772L16.341 65.5486C16.2411 65.2774 16.1554 65.0918 16.0698 64.9919C15.9842 64.892 15.87 64.8206 15.7272 64.8206C15.5845 64.8206 15.3703 64.8491 15.0991 64.9491L9.56061 66.662C9.27512 66.7476 9.08955 66.8333 8.97536 66.9189C8.86116 67.0046 8.80406 67.1188 8.78979 67.2473C8.77551 67.39 8.81834 67.5898 8.88971 67.8611L8.66132 67.9324C8.58995 67.6184 8.46147 67.1616 8.27591 66.5621C8.19026 66.2766 8.07606 65.9483 7.96187 65.6057C7.84767 65.2631 7.76202 65.0204 7.7192 64.892C7.53363 64.3067 7.47653 63.7928 7.51936 63.336C7.56218 62.8792 7.70492 62.5081 7.93332 62.2083C8.16171 61.9086 8.46147 61.7087 8.83261 61.5945C9.1181 61.5089 9.43214 61.4803 9.77473 61.5232C10.1173 61.566 10.4456 61.7087 10.7882 61.9657C11.1308 62.2226 11.4163 62.5938 11.659 63.0934L11.6447 62.9506C11.6019 62.5938 11.5876 62.3083 11.6447 62.0656C11.7018 61.8229 11.8017 61.6231 11.9445 61.4518C12.1015 61.2805 12.3299 61.0949 12.6296 60.9236L13.686 60.2956C13.9001 60.1814 14.0714 60.0672 14.1713 59.9815C14.2712 59.8959 14.3569 59.8102 14.3997 59.7246C14.4425 59.6389 14.4425 59.539 14.414 59.4391C14.3711 59.3106 14.314 59.225 14.2284 59.1679C14.1427 59.1108 14 59.0394 13.8002 58.968L13.8715 58.7539C14.157 58.8538 14.3997 58.968 14.5567 59.0965ZM11.1451 62.9221C10.9024 62.6937 10.6169 62.5652 10.3172 62.5367C10.0174 62.5081 9.67481 62.5509 9.2894 62.6794C8.67559 62.865 8.26163 63.1647 8.03324 63.5502C7.80485 63.9356 7.80485 64.4637 8.00469 65.1061C8.07606 65.3345 8.16171 65.5058 8.24736 65.6057C8.333 65.7056 8.46147 65.7627 8.60422 65.7627C8.74697 65.7627 8.96108 65.7199 9.21803 65.6485L11.9587 64.792L11.7303 64.0355C11.5876 63.5216 11.3878 63.1505 11.1451 62.9221Z" fill="#292F36"/>
<path d="M13.4578 45.5504C14.0002 45.3077 14.3285 44.851 14.4713 44.1658C14.5141 43.9088 14.5141 43.6519 14.4427 43.4092C14.3713 43.1666 14.2429 42.9524 14.043 42.7669C13.8432 42.5813 13.572 42.4528 13.2151 42.3957C12.9153 42.3386 12.6441 42.3672 12.3872 42.4671C12.1302 42.567 11.8733 42.724 11.6306 42.9382C11.388 43.1523 11.1025 43.4378 10.7884 43.7946C10.4316 44.1943 10.1175 44.5226 9.84632 44.751C9.5751 44.9937 9.27533 45.165 8.94702 45.2935C8.61871 45.4219 8.24757 45.4362 7.83361 45.3648C7.40537 45.2792 7.04851 45.1222 6.79157 44.8652C6.53462 44.6083 6.34905 44.3085 6.26341 43.9517C6.17776 43.5948 6.17776 43.2237 6.24913 42.824C6.29196 42.5813 6.34905 42.3957 6.42043 42.2244C6.4918 42.0531 6.56317 41.9247 6.64882 41.8247C6.73447 41.7248 6.82011 41.6106 6.93431 41.4964C7.07706 41.3394 7.14843 41.2252 7.17698 41.1396C7.19125 41.0682 7.1627 41.0111 7.09133 40.954C7.01996 40.8969 6.89149 40.8541 6.72019 40.797L6.76302 40.54C7.20553 40.6542 7.97635 40.8255 9.10404 41.0396L9.06122 41.2966C8.66153 41.2538 8.29039 41.268 7.91925 41.3537C7.56239 41.4251 7.24835 41.5821 6.99141 41.8247C6.73447 42.0531 6.56317 42.3815 6.4918 42.7811C6.4347 43.0524 6.44898 43.295 6.52035 43.5377C6.59172 43.7804 6.72019 43.9659 6.89149 44.1229C7.07706 44.28 7.29117 44.3799 7.54812 44.437C7.96208 44.5084 8.31894 44.4513 8.61871 44.2514C8.91847 44.0516 9.20396 43.7946 9.47518 43.4949C9.74639 43.1951 9.91769 42.9953 10.0176 42.8953C10.4173 42.4671 10.7456 42.1388 11.0168 41.8961C11.288 41.6535 11.5878 41.4822 11.9161 41.368C12.2444 41.2538 12.6013 41.2395 12.9867 41.3109C13.4578 41.3965 13.8432 41.5821 14.1287 41.8533C14.4142 42.1388 14.5997 42.4671 14.6997 42.8668C14.7996 43.2665 14.7996 43.6947 14.7139 44.1515C14.6426 44.5226 14.5569 44.8081 14.4284 45.0365C14.3142 45.2649 14.1572 45.4648 13.9859 45.6503C13.8432 45.8073 13.7718 45.9215 13.7433 46.0072C13.729 46.0786 13.7575 46.1357 13.8289 46.1928C13.9003 46.2499 14.0288 46.307 14.2 46.3498L14.1572 46.6067C13.7433 46.4925 12.8297 46.307 11.4165 46.05L11.4593 45.7931C12.2587 45.8644 12.9153 45.7931 13.4578 45.5504Z" fill="#292F36"/>
<path d="M10.6321 33.5165C10.2324 33.3024 9.7756 33.1026 9.26172 32.9027C9.57576 32.346 10.1039 31.3754 10.8176 29.9907C11.5314 28.6204 12.031 27.6497 12.3022 27.0645C12.7733 27.3642 13.2015 27.6212 13.5869 27.821C13.9295 28.0066 14.2293 28.135 14.4577 28.235L14.3292 28.4776C13.7582 28.2492 13.33 28.1065 13.0302 28.0637C12.7304 28.0066 12.4592 28.0637 12.2308 28.2064C12.0024 28.3492 11.774 28.6347 11.5599 29.0629L11.2744 29.6339L17.1698 32.7029C17.4553 32.8599 17.6837 32.9313 17.8407 32.9456C17.9977 32.9598 18.1405 32.917 18.269 32.8028C18.3974 32.6886 18.5402 32.4745 18.7115 32.1747L18.9256 32.2889C18.7115 32.6458 18.4402 33.1454 18.0977 33.802C17.7408 34.4872 17.4839 35.0154 17.3268 35.3437L17.1127 35.2295C17.2555 34.9154 17.3554 34.6728 17.3697 34.5158C17.3982 34.3445 17.3554 34.2017 17.2412 34.0733C17.127 33.9448 16.9414 33.8163 16.6559 33.6593L10.7605 30.576L10.4608 31.1327C10.2324 31.5609 10.1325 31.9035 10.1467 32.1747C10.161 32.446 10.2752 32.6886 10.4893 32.9027C10.7034 33.1169 11.0603 33.4023 11.5742 33.7307L11.4457 33.9733C11.2602 33.8591 10.9747 33.7021 10.6321 33.5165Z" fill="#292F36"/>
<path d="M20.7095 17.115C20.9522 16.8723 21.152 16.644 21.2947 16.4727L21.466 16.644C21.3804 16.7724 21.3376 16.958 21.3518 17.1721C21.3661 17.3862 21.4232 17.686 21.5374 18.0429L22.8364 21.9113L24.3495 23.4101C24.5636 23.6099 24.7206 23.7527 24.8491 23.8098C24.9776 23.8669 25.106 23.8669 25.2345 23.8098C25.363 23.7527 25.52 23.6242 25.7341 23.4386L25.9054 23.6099C25.6342 23.8526 25.2773 24.1952 24.8348 24.6377C24.3638 25.1088 24.0212 25.4799 23.8071 25.7226L23.6358 25.5513C23.8213 25.3371 23.9498 25.1801 24.0069 25.0517C24.064 24.9232 24.064 24.7947 23.9926 24.6662C23.9355 24.5378 23.7928 24.3665 23.5929 24.1666L22.3368 22.9247L17.5691 21.5258C17.2836 21.4402 17.0695 21.4116 16.9267 21.4259C16.784 21.4402 16.6841 21.483 16.6127 21.5544L16.4414 21.3831C16.6698 21.1833 16.9267 20.9549 17.1837 20.6836C17.7118 20.1412 18.0973 19.7558 18.3114 19.4989L18.4827 19.6702C18.0973 20.0556 18.0116 20.3553 18.2257 20.5694C18.3114 20.6551 18.4256 20.7122 18.5969 20.7693L22.608 22.0112L21.5517 18.8565C21.3947 18.3997 21.2377 18.0857 21.0664 17.9287C20.9093 17.7716 20.738 17.7288 20.5525 17.7859C20.3669 17.843 20.1528 17.9858 19.8958 18.2284L19.7245 18.0571C20.0671 17.7431 20.3812 17.429 20.7095 17.115Z" fill="#292F36"/>
<path d="M29.346 11.363C29.2603 11.4629 29.2175 11.5914 29.246 11.7341C29.2746 11.8769 29.346 12.0767 29.4887 12.3336L32.2437 17.4439C32.3864 17.7009 32.5006 17.8722 32.6148 17.9721C32.7148 18.072 32.8432 18.1006 32.9717 18.0863C33.1002 18.072 33.3 17.9864 33.5427 17.8579L34.2992 17.4439C34.7275 17.2155 35.0272 16.9729 35.1843 16.7302C35.3413 16.4875 35.3984 16.2163 35.3555 15.888C35.3127 15.5597 35.1843 15.1457 34.9559 14.6033L35.1985 14.4748C35.2984 14.7032 35.4412 14.9887 35.6268 15.3313C35.8409 15.7167 36.0978 16.1449 36.4119 16.616C35.9408 16.8444 35.1414 17.2584 34.0423 17.8579C32.729 18.5716 31.7298 19.114 31.0732 19.4995L30.959 19.2996C31.2017 19.1569 31.373 19.0284 31.4586 18.9285C31.5442 18.8286 31.5871 18.7001 31.5585 18.5573C31.53 18.4146 31.4586 18.2148 31.3159 17.9578L28.5323 12.8475C28.3896 12.5906 28.2754 12.4193 28.1612 12.3194C28.0613 12.2194 27.9328 12.1909 27.8043 12.2052C27.6616 12.2194 27.476 12.2908 27.2191 12.4193L27.1191 12.2052C27.4189 12.0767 27.8614 11.8483 28.4467 11.52C29.0034 11.2202 29.4316 10.9776 29.7314 10.792L29.8456 10.9918C29.6029 11.1346 29.4459 11.2631 29.346 11.363Z" fill="#292F36"/>
<path d="M46.7309 12.2761C46.8165 12.7043 46.945 13.1897 47.102 13.7321C46.5739 13.8178 45.7031 13.9748 44.4755 14.2174C43.0052 14.5029 41.9061 14.7313 41.1495 14.9026L41.1067 14.6742C41.3779 14.6029 41.5778 14.5458 41.692 14.4601C41.8062 14.3887 41.8775 14.2745 41.8918 14.1461C41.9061 14.0033 41.8918 13.7892 41.8347 13.5037L40.7213 7.80817C40.6642 7.52268 40.6071 7.32284 40.5215 7.19437C40.4358 7.0659 40.3502 6.99452 40.2074 6.98025C40.0789 6.9517 39.8648 6.96597 39.5936 7.0088L39.5508 6.78041C40.3073 6.65194 41.4207 6.45209 42.8767 6.1666C44.0044 5.93821 44.8038 5.78119 45.2606 5.66699C45.3034 6.18088 45.3748 6.63766 45.4462 7.03735C45.5033 7.33711 45.5604 7.56551 45.6175 7.7368L45.3605 7.7939C45.2035 7.30856 45.0608 6.9517 44.9323 6.72331C44.8038 6.49492 44.6182 6.35217 44.4041 6.2808C44.1757 6.20942 43.876 6.20942 43.462 6.29507L42.5056 6.48064C42.2344 6.53774 42.0346 6.59484 41.9204 6.66621C41.8062 6.73758 41.7348 6.8375 41.7062 6.98025C41.692 7.12299 41.7062 7.33711 41.7633 7.6226L42.2915 10.3348L43.048 10.1777C43.4335 10.1064 43.6618 9.93508 43.7475 9.67814C43.8331 9.4212 43.8617 9.17853 43.8474 8.93586C43.8331 8.69319 43.8189 8.53617 43.8189 8.4648L44.0758 8.4077C44.1186 8.79312 44.1757 9.14998 44.2471 9.49257L44.3613 10.035C44.4327 10.4204 44.5611 10.9628 44.7467 11.648L44.4898 11.7051C44.4755 11.648 44.4184 11.4767 44.3185 11.1627C44.2186 10.8486 44.0758 10.6345 43.8617 10.5061C43.6476 10.3776 43.4049 10.349 43.0909 10.4061L42.3343 10.5489L42.8767 13.3039C42.9338 13.5894 42.9909 13.7892 43.0623 13.9177C43.1337 14.0319 43.2336 14.1032 43.3764 14.1318C43.5048 14.1461 43.7189 14.1318 43.9902 14.0747L44.8324 13.9034C45.3034 13.8035 45.6603 13.675 45.8887 13.5037C46.1171 13.3324 46.2455 13.0898 46.3026 12.79C46.3597 12.4902 46.3597 12.062 46.3169 11.5053L46.5739 11.4482C46.6167 11.6623 46.6595 11.9335 46.7309 12.2761Z" fill="#292F36"/>
<path d="M37.1113 66.7902C36.4547 65.9052 35.8837 64.9345 35.3841 63.8639C34.8845 62.7933 34.4848 61.7085 34.185 60.5951C33.5284 55.6989 33.5141 50.9455 34.1279 46.3348C34.7417 41.7241 35.7409 37.1848 37.1113 32.7026C37.3397 32.203 37.8393 31.9603 38.6101 31.9603C39.381 31.9603 40.1375 32.1316 40.9083 32.4742C41.6792 32.8168 42.3072 33.2736 42.8068 33.8446C43.3065 34.4156 43.4207 35.0151 43.1494 35.6289C42.7212 36.5425 42.3072 37.7844 41.8933 39.326C41.4793 40.8819 41.0654 42.5949 40.6942 44.4648C40.3088 46.3348 39.9805 48.3047 39.695 50.3459C39.4095 52.3872 39.1954 54.3571 39.0669 56.2271C38.9384 58.097 38.9099 59.7957 38.9813 61.3088C39.0526 62.8219 39.281 64.0209 39.6664 64.8917C41.465 62.4793 43.1066 59.9813 44.6054 57.3976C46.1043 54.8139 47.5032 52.2016 48.8164 49.5323C50.1297 46.8772 51.3858 44.1936 52.5706 41.4672C53.7554 38.755 54.9259 36.0714 56.0679 33.4306C56.6389 32.0888 57.2099 30.6756 57.7666 29.1911C58.3233 27.6923 59.0513 26.4218 59.9791 25.3512C60.3645 25.0086 60.6643 24.8944 60.8641 25.0086C61.0782 25.1228 61.221 25.337 61.2924 25.6653C61.3637 25.9936 61.4066 26.3362 61.4066 26.693C61.4066 27.0499 61.4066 27.3354 61.4066 27.521C61.1353 29.2767 60.907 31.0182 60.7214 32.7454C60.5358 34.4727 60.1219 36.1285 59.5223 37.7415C58.5231 40.2681 57.5096 42.7662 56.4533 45.2642C55.397 47.748 54.2693 50.2032 53.0702 52.6156C51.8712 55.028 50.5579 57.369 49.1733 59.6387C47.7744 61.9226 46.2613 64.0923 44.6054 66.1479C43.3065 67.7894 42.0075 68.6602 40.737 68.7601C39.4095 68.8743 38.2247 68.2034 37.1113 66.7902Z" fill="#292F36" stroke="white" stroke-miterlimit="10"/>
<path d="M60.749 60.3098C59.9782 59.2392 59.2217 58.1543 58.4794 57.0409C57.7371 55.9275 57.366 54.7142 57.366 53.3724C57.366 51.8878 57.7942 50.4746 58.6507 49.1471C59.5071 47.8338 60.4921 46.7632 61.6055 45.9639C62.0623 45.6641 62.5333 45.4072 63.0044 45.2216C63.4755 45.036 63.9893 45.0503 64.5318 45.2787C64.7602 45.3929 65.0028 45.4785 65.2455 45.5356C65.4882 45.5927 65.7166 45.6641 65.9021 45.7355C66.0877 45.8068 66.3018 45.921 66.5302 46.0781C66.7586 46.2351 66.8728 46.4349 66.8728 46.7061C66.8728 47.7767 66.9013 48.6475 66.9584 49.3184C67.0155 49.9893 67.1012 50.5603 67.2154 51.0456C67.3296 51.5309 67.4438 51.9449 67.558 52.3018C67.6722 52.6729 67.7864 53.0583 67.9006 53.4723C67.9719 53.8577 67.9577 54.186 67.8435 54.4429C67.7293 54.7142 67.4438 54.7427 66.987 54.5571C66.1448 54.2574 65.5167 53.6436 65.117 52.7157C64.7173 51.7879 64.4176 50.96 64.232 50.1891C64.1892 50.0321 64.1035 49.7752 63.9465 49.3898C63.7895 49.0043 63.7039 48.7331 63.661 48.5904C63.3613 48.519 62.9901 48.6189 62.5762 48.9044C62.1622 49.1899 61.7768 49.5896 61.4628 50.0749C61.1344 50.5745 60.9203 51.1455 60.8347 51.8022C60.7347 52.4588 60.8632 53.1011 61.2058 53.7578C61.3628 53.9862 61.5769 54.2716 61.8624 54.5857C62.1479 54.914 62.4334 55.2423 62.7189 55.5849C63.0044 55.9275 63.2899 56.2701 63.5754 56.5841C63.8609 56.8982 64.1035 57.1694 64.2891 57.3549C64.5175 57.5833 64.6745 57.7118 64.7459 57.7261C64.8173 57.7404 65.0171 57.6975 65.3169 57.5833C65.7023 57.3978 66.2875 57.1408 67.0726 56.8411C67.8577 56.5413 68.6857 56.2273 69.5421 55.9275C70.3986 55.6277 71.2265 55.3708 72.0116 55.1567C72.7967 54.9425 73.3963 54.8426 73.8245 54.8426C74.0957 54.8426 74.2813 54.9425 74.3955 55.1281C74.5097 55.2423 74.4954 55.3993 74.3384 55.5849C74.1814 55.7705 73.9815 55.9703 73.7389 56.1559C73.4962 56.3415 73.225 56.5127 72.968 56.6698C72.6968 56.8268 72.5255 56.9124 72.4541 56.9553C71.7975 57.3407 70.9839 57.7689 69.9847 58.2542C68.9854 58.7253 68.129 59.1964 67.401 59.6531C67.3296 59.7245 67.1868 59.8102 66.9727 59.8815C66.7586 59.9529 66.6016 60.0386 66.4874 60.1099C66.9442 61.1377 67.2725 62.037 67.4581 62.7793C67.6436 63.5215 67.715 64.2353 67.6579 64.9347C67.6008 65.6199 67.4581 66.3194 67.2297 67.0331C67.0013 67.7468 66.6872 68.5605 66.3161 69.474C65.7737 70.359 65.2312 71.2012 64.6745 72.0006C64.1178 72.8 63.504 73.528 62.8046 74.1846C62.1194 74.8413 61.3628 75.3551 60.5635 75.7263C59.7641 76.1117 58.8791 76.2973 57.9227 76.2973C57.3802 76.2973 56.8664 76.2259 56.3667 76.0974C55.8671 75.9689 55.4532 75.6834 55.1106 75.2695C54.2256 74.3131 53.7402 73.2711 53.626 72.1434C53.5118 71.0157 53.6118 69.9023 53.9115 68.7888C54.1399 68.1037 54.4254 67.4756 54.768 66.8903C55.6102 65.4343 56.538 64.2067 57.5515 63.1932C58.5793 62.194 59.6356 61.2233 60.749 60.3098ZM62.7046 62.8935C62.2764 63.3217 61.7054 63.9212 60.9774 64.7063C60.2494 65.4914 59.5785 66.3479 58.9362 67.2615C58.3081 68.175 57.7942 69.0886 57.3945 69.9879C56.9948 70.8872 56.8949 71.658 57.0805 72.3147C57.8513 71.9721 58.6364 71.4011 59.4358 70.616C60.2351 69.8309 60.9489 68.9744 61.5627 68.0323C62.1765 67.0902 62.6047 66.1623 62.8474 65.2488C63.0901 64.3209 63.0472 63.5358 62.7046 62.8935Z" fill="#292F36" stroke="white" stroke-miterlimit="10"/>
<path d="M51.4436 83.5493C33.5862 83.5493 19.0547 69.0179 19.0547 51.1604C19.0547 33.303 33.5862 18.7715 51.4436 18.7715C69.3011 18.7715 83.8325 33.303 83.8325 51.1604C83.8325 69.0179 69.3011 83.5493 51.4436 83.5493ZM51.4436 20.1989C34.3713 20.1989 20.4821 34.0881 20.4821 51.1604C20.4821 68.2328 34.3713 82.1219 51.4436 82.1219C68.516 82.1219 82.4051 68.2328 82.4051 51.1604C82.4051 34.0881 68.516 20.1989 51.4436 20.1989Z" fill="#292F36"/>
</svg>
