<svg width="164" height="44" viewBox="0 0 164 44" fill="none" xmlns="http://www.w3.org/2000/svg">
<path d="M35.4007 43.5475H8.58239C4.17524 43.5475 0.603516 39.9758 0.603516 35.5686V8.75037C0.603516 4.34322 4.17524 0.771484 8.58239 0.771484H35.4007C39.8078 0.771484 43.3795 4.34322 43.3795 8.75037V35.5686C43.3795 39.9758 39.8078 43.5475 35.4007 43.5475Z" fill="#292F36"/>
<path d="M29.6972 22.553C30.46 23.5095 30.8474 24.6234 30.8474 25.8826C30.8474 27.7351 30.2299 29.188 28.995 30.2171C27.76 31.2463 25.9923 31.779 23.6918 31.779H13.6426V10.167H23.4497C25.6533 10.167 27.3483 10.6513 28.547 11.6078C29.7456 12.5643 30.351 13.9324 30.351 15.7001C30.351 17.0078 29.9999 18.0853 29.3098 18.9571C28.6196 19.8288 27.7116 20.3858 26.5856 20.6521C27.9053 20.9669 28.9344 21.5965 29.6972 22.553ZM18.8609 19.0055H22.2874C24.1035 19.0055 25.0116 18.2306 25.0116 16.6809C25.0116 15.1311 24.0793 14.3562 22.2268 14.3562H18.8609V19.0055ZM25.4959 25.1562C25.4959 24.3813 25.2416 23.7759 24.7331 23.34C24.2246 22.9042 23.4981 22.6862 22.5658 22.6862H18.873V27.5414H22.6022C24.5273 27.5292 25.4959 26.7423 25.4959 25.1562Z" fill="white"/>
<path d="M68.1628 31.779L63.4893 23.6185H62.3027V31.779H57.0723V10.167H65.9955C67.7027 10.167 69.1556 10.4576 70.3301 11.0508C71.5166 11.6441 72.4004 12.4553 72.9937 13.4845C73.587 14.5136 73.8776 15.688 73.8776 17.0199C73.8776 18.5939 73.4417 19.9257 72.5821 21.0275C71.7103 22.1293 70.4632 22.8799 68.8045 23.2916L73.9381 31.7911H68.1628V31.779ZM62.3027 20.0468H65.5354C66.5767 20.0468 67.3395 19.8167 67.8238 19.3566C68.3081 18.8966 68.5623 18.2185 68.5623 17.3226C68.5623 16.4629 68.3081 15.797 67.8117 15.3006C67.3153 14.8163 66.5525 14.562 65.5354 14.562H62.3027V20.0468Z" fill="#292F36"/>
<path d="M97.5364 27.8445H89.4365L88.0925 31.7915H82.5957L90.5141 10.3369H96.5315L104.45 31.7915H98.8925L97.5364 27.8445ZM96.1925 23.8611L93.5046 15.9185L90.7804 23.8611H96.1925Z" fill="#292F36"/>
<path d="M133.302 31.779H128.072L119.33 18.5091V31.779H114.1V10.167H119.33L128.072 23.558V10.167H133.302V31.779Z" fill="#292F36"/>
<path d="M162.625 26.5724C161.717 28.2069 160.41 29.4903 158.715 30.4104C157.008 31.3306 155.01 31.7907 152.709 31.7907H144.549V10.1787H152.709C155.034 10.1787 157.044 10.6267 158.727 11.5227C160.422 12.4186 161.717 13.6778 162.625 15.3123C163.533 16.9468 163.981 18.8114 163.981 20.9423C163.981 23.049 163.521 24.9257 162.625 26.5724ZM156.995 25.4827C158.121 24.4051 158.69 22.8795 158.69 20.9302C158.69 18.9688 158.121 17.4554 156.995 16.3778C155.869 15.3002 154.283 14.7554 152.237 14.7554H149.767V27.1051H152.237C154.283 27.1051 155.869 26.5723 156.995 25.4827Z" fill="#292F36"/>
</svg>
