<svg width="146" height="45" viewBox="0 0 146 45" fill="none" xmlns="http://www.w3.org/2000/svg">
<path d="M21.2244 8.95827L22.295 8.72988C22.5662 8.72988 22.7946 8.78698 22.9516 8.90117C23.1087 9.01537 23.1943 9.12956 23.1943 9.22949C23.1943 9.32941 23.1658 9.48643 23.1229 9.672C23.0801 9.85756 22.6804 11.7704 21.9381 15.3818C21.1959 18.9933 20.6534 21.6912 20.3108 23.4612C21.9667 21.2058 23.908 18.4366 26.1206 15.1391C28.3331 11.8417 29.6321 9.65772 30.0033 8.57286C30.1175 8.23027 30.2745 7.97333 30.46 7.78776C30.6456 7.60219 30.8169 7.48799 30.9597 7.45944C31.1024 7.43089 31.3308 7.40234 31.6306 7.40234C31.9303 7.40234 32.2872 7.47372 32.7012 7.60219C33.1151 7.73066 33.3292 7.94478 33.3292 8.25882C33.3292 8.8298 32.4728 10.4999 30.7741 13.2406C29.0754 15.9813 27.1198 18.8933 24.9215 21.9766C22.7233 25.0599 20.8961 27.5009 19.4258 29.2995C19.1689 29.6135 18.8406 29.7848 18.4694 29.7848C18.0983 29.7848 17.6986 29.7134 17.2846 29.585C16.8707 29.4565 16.6566 29.2281 16.6566 28.8855C16.6566 27.8149 17.5987 22.6475 19.4829 13.4119C17.8699 15.496 15.9143 18.408 13.6161 22.1337C11.218 25.9878 9.86189 28.3859 9.54785 29.2995C9.37656 29.8562 9.17672 30.1845 8.94833 30.2701C8.79131 30.3415 8.62 30.3701 8.44871 30.3701L7.29248 30.4985C7.06408 30.4985 6.86424 30.4414 6.66439 30.313C6.47882 30.1845 6.37891 30.056 6.37891 29.9133C6.37891 29.5279 6.92135 28.3574 7.99194 26.416C9.06253 24.4747 10.333 22.3621 11.7747 20.0781C13.2164 17.7942 14.7152 15.5817 16.2854 13.4262C17.8556 11.2707 19.069 9.81474 19.9254 9.08674C20.0967 8.92972 20.2966 8.85835 20.525 8.85835L21.2244 8.95827Z" fill="#292F36"/>
<path d="M38.382 18.6364C39.1243 18.6364 39.4954 18.8934 39.4954 19.393C39.4954 19.6642 39.4383 19.864 39.3098 19.9925C39.1814 20.121 38.9101 20.5349 38.4962 21.2629C38.0822 21.9767 37.6254 22.8902 37.1258 24.0179C36.6262 25.1313 36.2979 26.0877 36.1552 26.8728C36.1266 26.9728 36.1123 27.1012 36.1123 27.2868C36.1123 27.8292 36.2551 28.0862 36.5549 28.0862C36.8546 28.0862 37.1972 27.9434 37.5969 27.6722C37.9966 27.3867 38.3534 27.1012 38.6675 26.7729C38.9815 26.4589 39.2813 26.1306 39.581 25.8022C39.8808 25.4739 40.0521 25.2741 40.1092 25.2313C40.1663 25.1884 40.252 25.1599 40.3661 25.1599C40.5517 25.1599 40.6659 25.3026 40.7087 25.5881C40.7516 25.8736 40.7658 26.1591 40.7658 26.4731C40.7658 26.7872 40.7373 26.987 40.6802 27.1012C40.3947 27.6579 39.7809 28.3288 38.8102 29.1139C37.8538 29.899 36.9688 30.2844 36.1837 30.2844C35.3986 30.2844 34.8134 30.0418 34.4565 29.5707C34.0996 29.0997 33.8998 28.5572 33.8998 27.9862C33.8998 27.401 33.9997 26.9014 34.1996 26.4589C33.3859 27.5152 32.4581 28.4002 31.416 29.1425C30.3597 29.8705 29.5175 30.2416 28.8466 30.2416C28.1757 30.2416 27.6476 30.0418 27.2193 29.6421C26.6769 29.1425 26.4199 28.4573 26.4199 27.5723C26.4199 26.6873 26.6198 25.8022 27.0194 24.903C27.4191 24.0179 27.933 23.19 28.5754 22.462C29.2177 21.7197 29.9315 21.0488 30.7023 20.4493C32.3153 19.1789 33.8141 18.5508 35.1845 18.5508C35.7126 18.5508 36.1409 18.6364 36.4692 18.8077C36.7975 18.979 37.0116 19.2074 37.0973 19.4644C37.3257 19.1075 37.5255 18.8934 37.6968 18.7934C37.8253 18.6792 38.0679 18.6364 38.382 18.6364ZM36.4407 20.2637C34.7705 20.2637 33.0433 21.1916 31.259 23.0473C30.6309 23.7182 30.0457 24.5033 29.5032 25.4311C28.9608 26.359 28.7039 26.987 28.7039 27.3296C28.7039 27.6722 28.8038 27.8435 29.0036 27.8435C29.2748 27.8435 30.0314 27.3011 31.2875 26.2305C32.5437 25.1599 33.3716 24.3605 33.7713 23.8466C34.2281 23.2757 35.1131 22.0766 36.4407 20.2637Z" fill="#292F36"/>
<path d="M49.4874 10.8994L50.0869 11.0422C50.1726 11.0422 50.2582 11.085 50.3153 11.1706C50.3867 11.2563 50.4152 11.3419 50.4152 11.4133C50.4152 11.4847 50.3153 11.6988 50.1012 12.0414C49.8871 12.384 49.6587 12.7694 49.3732 13.1976C49.0877 13.6259 48.945 13.8685 48.9307 13.9113C49.6872 13.8542 50.2297 13.8257 50.5437 13.8257C50.8577 13.8257 51.0719 13.8542 51.2003 13.8971C51.3145 13.9399 51.4573 14.0684 51.6 14.2682C51.757 14.468 51.8855 14.6251 52.014 14.725C52.1425 14.8249 52.1996 14.9819 52.1996 15.1818C52.1996 15.3816 52.0711 15.5672 51.8284 15.6957C51.5857 15.8384 51.3145 15.9241 51.029 15.9526C48.7594 16.181 47.5175 16.2952 47.2891 16.3095C46.504 17.5228 45.3906 19.407 43.9774 21.9622C42.5642 24.5173 41.8077 26.1303 41.722 26.7727C41.6792 27.0725 41.6649 27.3009 41.6649 27.4864C41.6649 27.8718 41.8648 28.0574 42.2645 28.0574C42.6642 28.0574 43.1067 27.9004 43.592 27.6006C44.0773 27.2866 44.5341 26.9583 44.9338 26.6014C46.0329 25.6307 46.6182 25.1311 46.6896 25.1311C46.9465 25.1311 47.075 25.5736 47.075 26.4444C47.075 26.9154 46.8609 27.3437 46.4184 27.7291C45.4334 28.5713 44.6055 29.2136 43.9346 29.6419C43.2637 30.0701 42.5928 30.2842 41.9076 30.2842C41.7649 30.2842 41.6221 30.27 41.4937 30.2414C40.7086 30.0987 40.1376 29.8132 39.7807 29.3849C39.4096 28.9567 39.2383 28.3857 39.2383 27.672C39.2383 26.9583 39.4524 26.0732 39.8806 25.0455C40.3089 24.0177 40.837 22.9186 41.4794 21.7623C42.5357 19.8638 43.592 18.0938 44.6341 16.4379L44.0773 16.5093C42.9497 16.6378 42.293 16.6949 42.1075 16.6949H41.979C41.6935 16.6949 41.4223 16.6378 41.1653 16.5236C40.9084 16.4094 40.7656 16.2666 40.7656 16.1096C40.7656 15.9383 40.837 15.7813 40.9798 15.6243C41.1225 15.4673 41.2082 15.3388 41.2367 15.2531C41.3081 15.039 41.565 14.7964 42.0075 14.5394C42.45 14.2825 42.7784 14.1397 43.0068 14.1255C43.2352 14.1112 43.4493 14.0969 43.6634 14.0826C43.8775 14.0684 44.1059 14.0684 44.3628 14.0541C44.6198 14.0398 44.8196 14.0398 44.9624 14.0255L46.2756 13.9684C47.0893 12.7408 47.6603 11.9415 47.96 11.5989C48.2741 11.242 48.4454 11.0564 48.4882 11.0279C48.531 10.9993 48.6309 10.9708 48.7879 10.9708L49.4874 10.8994Z" fill="#292F36"/>
<path d="M58.2668 25.1603C58.4523 25.1603 58.5665 25.3031 58.6093 25.5886C58.6522 25.8741 58.6665 26.1595 58.6665 26.4736C58.6665 26.7876 58.6379 26.9875 58.5808 27.1017C58.2953 27.6441 57.6815 28.315 56.7251 29.1001C55.7687 29.8852 54.8551 30.2849 53.9987 30.2849C53.4705 30.2849 52.9852 30.1279 52.5284 29.8138C52.0859 29.4998 51.8575 28.9431 51.8575 28.158C51.8575 27.3729 52.0716 26.5878 52.4856 25.8312C50.0589 28.8717 48.1747 30.3848 46.79 30.3848C46.2476 30.3848 45.8051 30.185 45.4625 29.7996C45.1199 29.4141 44.9629 29.0145 44.9629 28.5862C44.9629 28.1723 45.02 27.744 45.1342 27.3015C45.2484 26.859 45.3769 26.4593 45.5053 26.1025C45.6338 25.7456 45.8336 25.3174 46.0906 24.8035C46.3475 24.2896 46.5474 23.9184 46.6616 23.6758C46.7758 23.4331 46.9899 23.0905 47.2754 22.6195C47.5608 22.1484 47.9177 21.506 48.3745 20.7067C48.8313 19.9073 49.2024 19.3078 49.5022 18.9224C49.8019 18.5369 50.0874 18.3371 50.3729 18.3371C50.6584 18.3371 50.9011 18.4513 51.1152 18.6797C51.3293 18.9081 51.4435 19.1079 51.4435 19.2507C51.4435 19.3934 51.1152 20.05 50.4586 21.2206C48.5315 24.7178 47.5609 26.7448 47.5609 27.3301C47.5609 27.4728 47.6179 27.5442 47.7179 27.5442C48.1889 27.5442 49.3595 26.5307 51.2151 24.5037C53.0708 22.4767 54.1557 21.1777 54.4554 20.6068C54.7552 20.0358 55.0264 19.5504 55.3119 19.165C55.5831 18.7796 55.7973 18.5369 55.94 18.4513C56.354 18.1801 56.8964 18.0373 57.5673 18.0088C57.6815 18.0088 57.7529 18.0088 57.81 18.0231C57.8671 18.0373 57.9384 18.123 58.0098 18.2657C58.0812 18.4085 58.124 18.5369 58.124 18.6369C58.0384 18.9081 57.6529 19.6361 56.9535 20.8209C56.2683 22.0057 55.8829 22.6766 55.8115 22.8193C54.6553 25.2032 54.0843 26.7591 54.0843 27.4728C54.0843 27.8868 54.2413 28.0866 54.5554 28.0866C55.1264 28.0152 55.8115 27.5585 56.6109 26.7305C56.9107 26.4308 57.1962 26.1167 57.4817 25.8027C57.7672 25.4886 57.9527 25.3031 58.0098 25.2603C58.0812 25.1889 58.1668 25.1603 58.2668 25.1603Z" fill="#292F36"/>
<path d="M62.5059 21.7769C64.8041 19.1647 66.774 17.8514 68.387 17.8514C68.7867 17.8514 69.115 17.9656 69.372 18.2083C69.6289 18.4509 69.7574 18.7507 69.7574 19.1361C69.7574 19.5215 69.4862 20.1496 68.9437 21.0489C68.4013 21.9339 67.9017 22.6905 67.4449 23.3043C67.2022 23.6183 66.931 23.7754 66.617 23.7754C66.3172 23.7754 66.0745 23.6612 65.9032 23.4328C65.732 23.2044 65.6463 22.9474 65.6463 22.6477C65.6463 21.9768 66.0032 21.2059 66.7312 20.3637L66.7026 20.3352C66.3743 20.3637 65.5892 21.0061 64.3045 22.2337C63.0341 23.4756 61.9492 24.589 61.0499 25.5597C60.1649 26.5446 59.1942 27.7294 58.1379 29.1426C57.8381 29.5565 57.5812 29.7707 57.3671 29.7707C57.153 29.7707 56.8817 29.6993 56.5392 29.5708C56.1966 29.4423 55.9824 29.3424 55.9111 29.2853C55.8397 29.2282 55.7969 29.1283 55.7969 28.9856C55.7969 28.8571 55.8397 28.6858 55.9111 28.5145C55.9824 28.3289 56.1395 28.072 56.3393 27.7437C56.5392 27.4154 56.8675 26.8729 57.2957 26.1306C57.7239 25.3884 58.3806 24.2607 59.2799 22.7619C60.1792 21.263 60.7073 20.3495 60.8929 20.0354C61.264 19.3931 61.5638 18.922 61.8065 18.6365C62.249 18.0798 62.9912 17.8086 64.0333 17.8086C64.2617 17.8086 64.3902 17.9513 64.3902 18.2511C64.3902 18.7079 63.9619 19.5786 63.1197 20.8348L62.5059 21.7769Z" fill="#292F36"/>
<path d="M78.2513 18.8079C78.2513 19.4502 77.9943 20.0212 77.4662 20.5065C76.938 20.9919 76.3528 21.2345 75.6819 21.2345C75.4678 21.2345 75.325 21.1774 75.2536 21.0775C75.1823 20.9776 75.1537 20.8349 75.1537 20.6778C75.1537 20.5208 75.168 20.3495 75.2108 20.1925C74.8539 20.3067 74.4685 20.4923 74.0403 20.7349C73.6121 20.9776 73.0839 21.3345 72.4558 21.8198C71.8277 22.3051 71.5137 22.6477 71.5137 22.8904C71.5137 22.9618 71.6279 23.0046 71.8563 23.0046C72.0847 23.0046 72.4415 22.9189 72.9126 22.7619C73.3837 22.6049 73.7263 22.5193 73.9118 22.5193C74.0974 22.5193 74.2259 22.5335 74.283 22.5478C74.4114 22.6192 74.5399 22.7619 74.6969 22.9903C74.8397 23.2187 74.911 23.4043 74.911 23.5327C74.911 23.6612 74.7826 23.8325 74.5256 24.0466C74.2687 24.2607 73.9832 24.4178 73.6692 24.532C73.3408 24.6462 73.1267 24.7318 73.0268 24.7889C70.9713 25.9451 69.9435 26.7302 69.9435 27.1585C69.9435 27.915 70.5859 28.3004 71.8848 28.3004C72.7128 28.3004 73.555 28.0435 74.3829 27.5153C75.0966 27.0728 75.739 26.616 76.31 26.145C76.8809 25.6882 77.2378 25.4027 77.3948 25.2885C77.5518 25.1743 77.666 25.1315 77.7374 25.1315C77.9944 25.1315 78.1228 25.417 78.1228 25.988C78.1228 26.5589 78.0943 26.9301 78.0229 27.1014C77.9515 27.2869 77.7659 27.5011 77.4376 27.7723C75.3536 29.471 73.3694 30.3274 71.5137 30.3274C70.5145 30.3274 69.7294 30.1847 69.1298 29.9135C68.0307 29.4139 67.4883 28.6573 67.4883 27.6295C67.4883 26.2877 68.4161 25.26 70.2861 24.5748C69.915 24.4035 69.6723 24.2037 69.5724 23.9324C69.4582 23.6755 69.4154 23.2615 69.4154 22.6905C69.4154 22.1196 69.6866 21.52 70.2147 20.8777C70.7429 20.2353 71.3995 19.7072 72.1703 19.3075C73.8833 18.3796 75.4249 17.9229 76.7667 17.9229C77.095 17.9229 77.4091 17.9942 77.7517 18.1512C78.0943 18.3083 78.2513 18.5224 78.2513 18.8079Z" fill="#292F36"/>
<path d="M111.569 8.87314H111.754C111.811 8.87314 111.854 8.87314 111.869 8.88741C111.883 8.90169 111.897 8.90169 111.926 8.91596C111.954 8.91596 111.968 8.93023 111.997 8.95878C112.04 9.00161 112.111 9.04443 112.197 9.08725C112.311 9.1729 112.368 9.27282 112.368 9.38702C112.368 9.50122 112.254 9.74388 112.026 10.115C111.797 10.4862 111.212 11.3855 110.255 12.8415C108.071 16.1817 106.116 19.2935 104.389 22.1485C101.405 27.116 99.8922 29.614 99.8636 29.6426C99.8351 29.6711 99.8208 29.6997 99.8065 29.7282C99.7923 29.7853 99.7637 29.8139 99.6923 29.8139L99.4925 29.7711L99.0928 29.871L98.8644 29.8282L98.6217 29.871H98.5361L97.7225 29.9852C97.2371 29.9852 96.9944 29.8139 96.9944 29.4856C96.9944 29.3428 97.0373 29.1715 97.1229 28.9717C97.4227 28.258 98.9501 25.6743 101.691 21.1921C99.8922 21.2349 98.1079 21.2634 96.3521 21.2634L93.2117 21.2492C92.6978 22.0771 91.9841 23.2476 91.0848 24.775C89.1434 28.1009 88.1157 29.7711 87.9872 29.7996C87.8587 29.8282 87.7588 29.8567 87.6732 29.8567C87.5875 29.8567 87.5162 29.8139 87.4591 29.714C87.3877 29.6283 87.3449 29.5712 87.3163 29.5712C87.2878 29.5712 87.2449 29.5855 87.1593 29.6283C87.0879 29.6711 86.9737 29.6854 86.8167 29.6854L86.4741 29.6711L86.3457 29.5855C86.3314 29.5855 86.3171 29.5998 86.3028 29.6283C86.2886 29.6569 86.2457 29.6711 86.1886 29.6711C85.7747 29.6711 85.5605 29.4998 85.5605 29.143C85.5605 28.9146 85.6462 28.6005 85.8032 28.2151C85.9745 27.8297 86.1886 27.4158 86.4598 26.9732C86.7311 26.5307 87.4162 25.4601 88.5439 23.79C89.6573 22.1199 90.214 21.2777 90.214 21.2634C90.0285 21.2492 89.8144 21.2492 89.5717 21.2349C89.0721 21.2349 88.7295 21.2206 88.5154 21.1778C87.9587 21.0779 87.5733 20.6211 87.3734 19.8074C87.2592 19.4077 87.2164 19.1508 87.2307 19.0223C87.2307 18.7654 87.3449 18.6226 87.5733 18.6226L87.9587 18.7226C88.1585 18.7368 88.6153 18.7511 89.3576 18.7939C90.0999 18.8368 90.628 18.851 90.9563 18.851L91.7842 18.8225C93.0547 16.8383 94.5678 14.5829 96.3378 12.0706C95.0531 13.1269 93.6257 13.6551 92.0555 13.6551C91.3132 13.6551 90.6708 13.4838 90.1427 13.1269C89.6002 12.7701 89.3433 12.3133 89.3433 11.7709C89.3433 11.2284 89.5431 10.8002 89.9571 10.4719C90.3711 10.1578 90.7565 10.0008 91.1276 10.0008C91.4987 10.0008 91.6843 10.0579 91.6843 10.1721C91.6843 10.2149 91.6272 10.2578 91.5273 10.3006C91.4274 10.3577 91.3703 10.4005 91.3703 10.4433C91.3703 10.6004 91.5416 10.7431 91.8842 10.8573C92.2267 10.9715 92.6122 11.0429 93.0404 11.0429C93.4686 11.0429 93.9825 10.9144 94.6106 10.6717C95.2387 10.4291 95.881 10.1007 96.5519 9.71533C97.4941 9.1729 98.2363 8.71612 98.7788 8.35925C99.0928 8.20223 99.3783 8.13086 99.6638 8.13086C99.9493 8.13086 100.135 8.15941 100.263 8.23078C100.392 8.28788 100.477 8.35925 100.535 8.41635C100.592 8.47345 100.663 8.5591 100.72 8.65902C100.791 8.75894 100.849 8.84459 100.92 8.88741C100.977 8.94451 101.02 9.00161 101.02 9.07298C101.02 9.14435 100.977 9.24427 100.906 9.40129C100.834 9.54404 100.463 10.1436 99.7923 11.1856C99.1214 12.2277 98.2506 13.5552 97.1943 15.1682C96.138 16.7812 95.3672 17.966 94.8818 18.7368C97.4941 18.7368 100.306 18.694 103.332 18.5941C107.015 12.7844 108.957 9.74388 109.156 9.45839C109.356 9.1729 109.542 8.98733 109.713 8.90169C109.884 8.81604 110.084 8.77321 110.327 8.77321L111.569 8.87314Z" fill="#292F36"/>
<path d="M116.336 18.6078C116.636 18.6078 116.936 18.7363 117.235 19.0075C117.549 19.2787 117.692 19.6784 117.692 20.2208C117.692 20.7633 117.507 21.4627 117.121 22.3335C116.736 23.1899 116.222 24.075 115.551 24.9742C114.894 25.8593 114.152 26.7015 113.367 27.4866C112.568 28.2717 111.711 28.914 110.797 29.4136C109.87 29.9132 109.042 30.1702 108.285 30.1702C107.529 30.1702 106.929 29.9275 106.472 29.4565C106.015 28.9854 105.787 28.3288 105.787 27.4866C105.787 26.6444 106.001 25.7022 106.415 24.6888C106.829 23.661 107.357 22.7617 108.014 21.9766C108.671 21.1915 109.37 20.492 110.141 19.864C111.725 18.5793 113.124 17.9512 114.323 17.9512C114.866 17.9512 115.265 18.0796 115.537 18.3509C115.637 18.4365 115.679 18.5222 115.679 18.5793V18.6649C115.836 18.6078 116.05 18.6078 116.336 18.6078ZM114.866 20.5491H114.766C114.423 20.5491 114.252 20.3065 114.252 19.8069C113.538 20.0353 112.796 20.4492 112.011 21.0345C111.226 21.6197 110.526 22.3192 109.912 23.1186C108.656 24.7173 108.028 26.0734 108.014 27.1725C108.014 27.715 108.214 27.9862 108.613 27.9862C109.013 27.9862 109.613 27.715 110.398 27.2011C111.183 26.6872 111.968 25.9306 112.753 24.9457C113.524 23.975 114.109 23.1186 114.495 22.4048C114.88 21.6911 115.08 21.2058 115.08 20.9346C115.066 20.6776 114.994 20.5491 114.866 20.5491Z" fill="#292F36"/>
<path d="M117.377 29.8421L116.664 29.8136H116.407C116.307 29.785 116.207 29.7279 116.093 29.6423C115.978 29.5566 115.893 29.4853 115.836 29.4567C115.779 29.4282 115.75 29.3425 115.75 29.2426C115.75 29.1427 115.793 28.9571 115.864 28.7144C117.763 24.532 119.604 21.1775 121.388 18.6794C121.588 18.4082 121.902 18.1941 122.331 18.0514C122.759 17.9086 123.187 17.8372 123.601 17.8372C123.844 17.8372 123.972 18.0228 123.972 18.4082C123.972 18.5224 123.929 18.6652 123.858 18.8365C123.787 19.022 123.587 19.3075 123.273 19.7215C122.959 20.1354 122.588 20.6065 122.159 21.1204C121.731 21.6343 121.488 21.9483 121.431 22.034C122.773 20.6493 123.972 19.6216 125.057 18.9364C126.142 18.2655 126.913 17.9229 127.398 17.9229C127.883 17.9229 128.254 18.0656 128.511 18.3369C128.768 18.6081 128.897 18.9078 128.897 19.2219C128.897 19.5359 128.868 19.8071 128.825 20.007C128.783 20.2211 128.697 20.4352 128.583 20.6636C128.469 20.892 128.369 21.0918 128.283 21.2489C128.197 21.4059 128.055 21.62 127.869 21.8769C127.669 22.1339 127.541 22.3195 127.469 22.4194C127.398 22.5193 127.241 22.7049 127.013 22.9761C126.784 23.2473 126.656 23.4043 126.641 23.4329C126.913 23.1616 127.298 22.762 127.783 22.2195C128.269 21.6771 128.683 21.2346 129.025 20.8777C129.368 20.5209 129.782 20.1069 130.296 19.6501C130.81 19.1933 131.281 18.8222 131.709 18.551C132.765 17.8943 133.836 17.5518 134.921 17.5518C135.292 17.5518 135.606 17.666 135.863 17.9086C136.12 18.1513 136.248 18.4225 136.248 18.7508C136.248 19.0791 135.849 19.8642 135.063 21.0918C134.278 22.3195 133.479 23.5613 132.694 24.8032C131.909 26.0451 131.509 26.8302 131.509 27.1585C131.509 27.601 131.595 27.8722 131.752 27.9579C131.923 28.0435 132.123 28.0721 132.351 28.0578C132.58 28.0435 132.922 27.8865 133.336 27.601C133.764 27.3155 134.136 27.03 134.464 26.716C135.006 26.2307 135.492 25.7596 135.963 25.3028C136.063 25.2172 136.163 25.1744 136.291 25.1744C136.477 25.1744 136.591 25.3171 136.634 25.6026C136.676 25.8881 136.691 26.1736 136.691 26.4876C136.691 26.8017 136.662 27.0015 136.605 27.1157C136.32 27.6581 135.692 28.329 134.735 29.1284C133.764 29.9135 132.837 30.3132 131.952 30.3132C131.837 30.3132 131.766 30.3132 131.723 30.2989C130.724 30.199 130.025 29.9278 129.639 29.471C129.254 29.0142 129.068 28.4718 129.068 27.858C129.068 27.2442 129.282 26.4733 129.71 25.5883C130.139 24.7033 130.596 23.8896 131.109 23.1759C131.623 22.4622 132.08 21.8056 132.508 21.2203C132.937 20.6351 133.151 20.321 133.151 20.2782C133.151 20.2354 133.108 20.2068 133.036 20.2068C132.737 20.2068 132.066 20.6922 131.009 21.6771C129.225 23.3472 127.684 24.9602 126.385 26.5019C126.042 26.9159 125.228 27.9436 123.958 29.6137C123.815 29.8136 123.572 29.9135 123.258 29.9135C122.944 29.9135 122.616 29.8564 122.273 29.7279C121.931 29.5995 121.76 29.4424 121.76 29.2569C121.76 29.157 122.53 27.7866 124.086 25.1458C125.642 22.505 126.413 21.0633 126.413 20.8349C126.413 20.5922 126.27 20.478 125.985 20.478C125.699 20.478 125.1 20.9063 124.201 21.7627C121.731 24.118 119.818 26.4733 118.462 28.8001C118.377 28.9428 118.205 29.157 117.948 29.4424C117.691 29.7279 117.463 29.8421 117.377 29.8421Z" fill="#292F36"/>
<path d="M145.685 18.8079C145.685 19.4502 145.428 20.0212 144.9 20.5065C144.372 20.9919 143.786 21.2345 143.115 21.2345C142.901 21.2345 142.759 21.1774 142.687 21.0775C142.616 20.9776 142.587 20.8349 142.587 20.6778C142.587 20.5208 142.602 20.3495 142.644 20.1925C142.288 20.3067 141.902 20.4923 141.474 20.7349C141.046 20.9776 140.517 21.3345 139.889 21.8198C139.261 22.3051 138.947 22.6477 138.947 22.8904C138.947 22.9618 139.061 23.0046 139.29 23.0046C139.518 23.0046 139.875 22.9189 140.346 22.7619C140.817 22.6049 141.16 22.5193 141.345 22.5193C141.531 22.5193 141.659 22.5335 141.717 22.5478C141.845 22.6192 141.973 22.7619 142.131 22.9903C142.273 23.2187 142.345 23.4043 142.345 23.5327C142.345 23.6612 142.216 23.8325 141.959 24.0466C141.702 24.2607 141.417 24.4178 141.103 24.532C140.774 24.6462 140.56 24.7318 140.46 24.7889C138.405 25.9451 137.377 26.7302 137.377 27.1585C137.377 27.915 138.019 28.3004 139.318 28.3004C140.146 28.3004 140.989 28.0435 141.816 27.5153C142.53 27.0728 143.173 26.616 143.744 26.145C144.315 25.6882 144.671 25.4027 144.828 25.2885C144.985 25.1743 145.1 25.1315 145.171 25.1315C145.428 25.1315 145.556 25.417 145.556 25.988C145.556 26.5589 145.528 26.9301 145.456 27.1014C145.385 27.2869 145.2 27.5011 144.871 27.7723C142.787 29.471 140.803 30.3274 138.947 30.3274C137.948 30.3274 137.163 30.1847 136.563 29.9135C135.464 29.4139 134.922 28.6573 134.922 27.6295C134.922 26.2877 135.85 25.26 137.72 24.5748C137.349 24.4035 137.106 24.2037 137.006 23.9324C136.892 23.6755 136.849 23.2615 136.849 22.6905C136.849 22.1196 137.12 21.52 137.648 20.8777C138.176 20.2353 138.833 19.7072 139.604 19.3075C141.317 18.3796 142.859 17.9229 144.2 17.9229C144.529 17.9229 144.843 17.9942 145.185 18.1512C145.528 18.3083 145.685 18.5224 145.685 18.8079Z" fill="#292F36"/>
<path d="M0.982422 33.7955C4.73662 35.3657 8.56219 36.579 12.4591 37.5069C16.3275 38.4775 20.2673 39.1627 24.2071 39.5909C26.177 39.8622 28.1611 39.8907 30.1168 40.0763C32.1009 40.0905 34.0708 40.2476 36.0407 40.1334L38.9955 40.062C39.9805 40.0477 40.9654 39.9193 41.9503 39.8622C42.9353 39.7765 43.9202 39.7337 44.8909 39.6052L47.8172 39.1913C51.7427 38.763 55.554 37.8494 59.351 36.7503C63.1908 35.694 66.8166 34.2951 70.6564 32.8391C74.5819 31.3974 78.8357 30.4552 83.1466 30.912C85.2736 31.1832 87.4147 31.8684 89.1562 33.1246C90.912 34.3665 92.1682 36.1365 92.9675 37.9922C91.7685 36.3363 90.2696 34.9803 88.5424 34.1381C86.8152 33.2959 84.9167 32.9533 83.0324 33.0104C79.2211 33.0675 75.4669 34.3379 71.9411 35.9367C68.3582 37.7067 64.4755 39.3054 60.5643 40.633C56.6245 41.9034 52.5563 42.9169 48.431 43.4308C40.2231 44.5157 31.8154 44.5299 23.7075 42.8884C19.6392 42.1461 15.6709 40.9898 11.8311 39.5196C8.01975 37.9922 4.29411 36.2079 0.982422 33.7955Z" fill="#292F36"/>
<path d="M137.489 10.0285C134.306 8.67241 131.066 7.61609 127.782 6.78817C124.514 5.91742 121.202 5.30362 117.876 4.87538C116.22 4.61844 114.536 4.56134 112.88 4.3615C111.21 4.31867 109.554 4.14738 107.884 4.21875C107.056 4.23303 106.214 4.23303 105.386 4.21875C104.558 4.21875 103.716 4.3044 102.888 4.33295C102.06 4.39005 101.218 4.40432 100.39 4.48997L97.9059 4.78973C94.5799 5.06095 91.3539 5.74613 88.1278 6.58832C84.8589 7.37342 81.7614 8.48684 78.4639 9.60025C75.0809 10.7279 71.4123 11.4131 67.7295 10.8992C65.9166 10.5995 64.0895 9.95711 62.6478 8.81515C61.1775 7.68746 60.1783 6.14581 59.5645 4.53279C60.5779 5.94597 61.8341 7.10221 63.2758 7.81594C64.7176 8.52966 66.302 8.82943 67.8865 8.81515C71.084 8.81515 74.2529 7.78739 77.2506 6.50268C80.3054 5.04668 83.6599 3.76197 87.0001 2.70565C90.3689 1.69216 93.8804 0.921335 97.392 0.550197C104.401 -0.192079 111.567 -0.020785 118.433 1.60651C121.873 2.33451 125.227 3.44793 128.439 4.81828C131.665 6.21719 134.777 7.84448 137.489 10.0285Z" fill="#292F36"/>
</svg>
