<svg width="118" height="48" viewBox="0 0 118 48" fill="none" xmlns="http://www.w3.org/2000/svg">
<path d="M0.683594 29.7838V0.578125H17.8844V29.7695H0.683594V29.7838ZM15.8004 22.9891L16.2429 19.7631L14.6441 19.6061L14.1588 22.0899C13.1595 22.5895 11.9319 22.8321 10.4617 22.8321C8.46322 22.8321 6.87874 22.204 5.7225 20.9336C4.55199 19.6632 3.98101 17.9931 3.98101 15.909C3.98101 13.882 4.55199 12.2119 5.67968 10.8986C6.80737 9.58536 8.29196 8.92873 10.1334 8.92873C11.0755 8.92873 11.8748 9.04292 12.5172 9.25704C13.1596 9.47116 13.7448 9.75665 14.3015 10.1278L14.7726 12.583L16.3999 12.426L15.9288 9.19995C15.2437 8.61469 14.43 8.14363 13.4879 7.77249C12.5457 7.41563 11.3752 7.23006 9.99062 7.23006C8.34905 7.23006 6.93587 7.62975 5.75108 8.44339C4.56629 9.25704 3.63845 10.3276 2.98182 11.6552C2.32519 12.997 1.99687 14.4387 1.99687 15.9803C1.99687 18.4213 2.75342 20.4626 4.26652 22.0899C5.77962 23.7171 7.74949 24.5308 10.1904 24.5308C12.5886 24.5308 14.4586 24.0169 15.8004 22.9891Z" fill="#292F36"/>
<path d="M23.7227 29.7838V0.578125H31.1169V29.7695H23.7227V29.7838ZM24.5077 24.2739H30.346V22.8036H28.3333V6.50206H24.4792V7.97233H26.5205V22.8036H24.5077V24.2739Z" fill="#292F36"/>
<path d="M36.9551 29.7838V0.578125H49.9449V29.7695H36.9551V29.7838ZM39.3104 13.6536L38.8964 16.3087L40.3952 16.4942L40.8378 14.5101C41.4801 14.196 42.2081 14.039 43.0646 14.039C44.0923 14.039 44.7918 14.296 45.1487 14.8098C45.5056 15.3237 45.6768 15.9946 45.6768 16.8225V17.8503C45.3628 17.8218 45.0345 17.7932 44.6776 17.7789C44.3207 17.7647 43.9782 17.7504 43.6356 17.7504C42.3509 17.7504 41.1232 17.9788 39.9813 18.4356C38.8393 18.8924 38.2684 19.8487 38.2684 21.2905C38.2684 22.5181 38.6538 23.3603 39.4389 23.8171C40.224 24.2881 40.9948 24.5165 41.7513 24.5165C42.6792 24.5165 43.4785 24.2739 44.1352 23.7885C44.7918 23.3032 45.3057 22.7608 45.6768 22.1327V22.1898C45.7054 23.7457 46.4048 24.5165 47.7752 24.5165C48.3034 24.5165 48.8029 24.3881 49.274 24.1311L49.2455 22.9463C49.0171 23.0462 48.7601 23.1033 48.4746 23.1033C47.818 23.1033 47.4897 22.6894 47.4897 21.8615V16.3943C47.4897 13.8249 46.1193 12.5402 43.3786 12.5402C42.6221 12.5402 41.9083 12.6258 41.2374 12.7971C40.5523 12.9827 39.9099 13.2682 39.3104 13.6536ZM45.6626 19.9629C45.5912 20.9051 45.2058 21.6616 44.5063 22.204C43.8069 22.7608 43.0646 23.032 42.2652 23.032C41.7656 23.032 41.2803 22.8892 40.8235 22.618C40.3524 22.3468 40.124 21.8329 40.124 21.0906C40.124 20.1913 40.4809 19.6204 41.1661 19.3491C41.8655 19.0779 42.6363 18.9495 43.5071 18.9495C43.8925 18.9495 44.2636 18.9637 44.6205 19.0066C44.9774 19.0351 45.3342 19.0637 45.6483 19.0779V19.9629H45.6626Z" fill="#292F36"/>
<path d="M55.7969 29.7838V0.578125H67.6019V29.7695H55.7969V29.7838ZM66.36 20.9479C66.36 20.0343 66.1173 19.3634 65.632 18.9209C65.1467 18.4784 64.5614 18.1786 63.8477 18.0073C63.134 17.836 62.4345 17.6933 61.7351 17.5791C61.0356 17.4649 60.4361 17.2793 59.9508 17.0367C59.4654 16.794 59.2228 16.3658 59.2228 15.752C59.2228 15.1667 59.4511 14.7385 59.9222 14.453C60.3933 14.1675 60.9785 14.039 61.7065 14.039C62.5487 14.039 63.3338 14.2246 64.0618 14.61L64.3474 16.4657L65.8462 16.2801L65.5607 13.5965C65.0753 13.2967 64.4901 13.0541 63.7906 12.8542C63.0912 12.6544 62.3489 12.5402 61.5495 12.5402C60.4932 12.5402 59.5225 12.7971 58.6232 13.2967C57.724 13.7963 57.2814 14.6528 57.2814 15.8804C57.2814 16.7797 57.5241 17.4364 58.0094 17.8503C58.4947 18.2785 59.0943 18.564 59.8223 18.7353C60.5503 18.9066 61.264 19.0494 61.9777 19.1778C62.6915 19.292 63.291 19.4919 63.7763 19.7488C64.2617 20.0058 64.5043 20.4483 64.5043 21.0906C64.5043 21.7473 64.1903 22.2326 63.5622 22.5466C62.9341 22.8607 62.2204 23.0177 61.4068 23.0177C60.4932 23.0177 59.6367 22.8321 58.8516 22.4467L58.923 20.9193L57.4813 20.7623L57.1244 23.3746C57.624 23.7029 58.2806 23.9741 59.08 24.1882C59.8794 24.4023 60.6788 24.5165 61.4924 24.5165C62.877 24.5165 64.0333 24.2025 64.9611 23.5601C65.889 22.9463 66.36 22.0613 66.36 20.9479Z" fill="#292F36"/>
<path d="M73.4414 29.7838V0.578125H85.2464V29.7695H73.4414V29.7838ZM84.0045 20.9479C84.0045 20.0343 83.7618 19.3634 83.2765 18.9209C82.7912 18.4784 82.2059 18.1786 81.4922 18.0073C80.7785 17.836 80.079 17.6933 79.3796 17.5791C78.6801 17.4649 78.0806 17.2793 77.5953 17.0367C77.1099 16.794 76.8672 16.3658 76.8672 15.752C76.8672 15.1667 77.0956 14.7385 77.5667 14.453C78.0377 14.1675 78.623 14.039 79.351 14.039C80.1932 14.039 80.9783 14.2246 81.7063 14.61L81.9918 16.4657L83.4906 16.2801L83.2051 13.5965C82.7198 13.2967 82.1346 13.0541 81.4351 12.8542C80.7357 12.6544 79.9934 12.5402 79.194 12.5402C78.1377 12.5402 77.167 12.7971 76.2677 13.2967C75.3684 13.7963 74.9259 14.6528 74.9259 15.8804C74.9259 16.7797 75.1686 17.4364 75.6539 17.8503C76.1393 18.2785 76.7388 18.564 77.4668 18.7353C78.1948 18.9066 78.9085 19.0494 79.6222 19.1778C80.3359 19.292 80.9355 19.4919 81.4208 19.7488C81.9062 20.0058 82.1488 20.4483 82.1488 21.0906C82.1488 21.7473 81.8348 22.2326 81.2068 22.5466C80.5787 22.8607 79.8649 23.0177 79.0513 23.0177C78.1377 23.0177 77.2812 22.8321 76.4961 22.4467L76.5675 20.9193L75.1258 20.7623L74.7689 23.3746C75.2685 23.7029 75.9252 23.9741 76.7245 24.1882C77.5239 24.4023 78.3233 24.5165 79.1369 24.5165C80.5216 24.5165 81.6778 24.2025 82.6056 23.5601C83.5335 22.9463 84.0045 22.0613 84.0045 20.9479Z" fill="#292F36"/>
<path d="M91.084 29.7838V0.578125H98.8636V29.7695H91.084V29.7838ZM92.2259 24.2739H98.0643V22.8036H96.0515V12.7829H92.1832V14.2531H94.2529V22.8036H92.2402V24.2739H92.2259ZM94.0531 7.45845V9.81375H96.023V7.45845H94.0531Z" fill="#292F36"/>
<path d="M104.703 29.7838V0.578125H117.136V29.7695H104.703V29.7838ZM116.023 20.4055L114.467 20.0629C114.124 22.0042 113.082 22.9749 111.369 22.9749C110.227 22.9749 109.357 22.5895 108.757 21.8186C108.158 21.0478 107.858 19.9629 107.858 18.5926C107.858 17.3507 108.129 16.2944 108.657 15.4094C109.185 14.5243 110.07 14.0961 111.298 14.0961C112.24 14.0961 113.068 14.3102 113.753 14.7385L114.196 16.6798L115.695 16.4942L115.252 13.725C114.667 13.2825 114.053 12.9684 113.411 12.7971C112.768 12.6258 112.069 12.5402 111.312 12.5402C109.528 12.5402 108.172 13.1683 107.287 14.4244C106.388 15.6806 105.945 17.108 105.945 18.6925C105.945 20.5339 106.416 21.9757 107.372 22.9891C108.315 24.0169 109.585 24.5308 111.17 24.5308C112.754 24.5308 113.925 24.0883 114.667 23.2175C115.409 22.3325 115.866 21.4047 116.023 20.4055Z" fill="#292F36"/>
<path d="M8.12067 45.7285C7.79236 46.328 7.30701 46.7991 6.67893 47.1274C6.03658 47.4557 5.28002 47.627 4.395 47.627H1.83984V39.5762H4.395C5.28002 39.5762 6.05085 39.7332 6.67893 40.0615C7.30701 40.3898 7.79236 40.8466 8.12067 41.4604C8.44899 42.0742 8.606 42.7737 8.606 43.6016C8.606 44.4152 8.44899 45.129 8.12067 45.7285ZM6.70747 45.8855C7.26417 45.3431 7.53541 44.5865 7.53541 43.6016C7.53541 42.6166 7.26417 41.8601 6.70747 41.3177C6.15076 40.7752 5.35138 40.504 4.29507 40.504H2.85337V46.6992H4.29507C5.35138 46.6992 6.15076 46.4279 6.70747 45.8855Z" fill="#292F36"/>
<path d="M13.9014 40.4184V43.1734H16.9562V43.9727H13.9014V46.7848H17.2988V47.627H12.8594V39.5762H17.2988V40.4184H13.9014Z" fill="#292F36"/>
<path d="M26.32 46.5999C26.1344 46.9282 25.8632 47.1995 25.4921 47.3993C25.1209 47.5991 24.6641 47.7133 24.1074 47.7133C23.5793 47.7133 23.0939 47.6134 22.68 47.4279C22.266 47.228 21.9377 46.9711 21.6808 46.6285C21.4381 46.2859 21.2953 45.9005 21.2525 45.4722H22.3659C22.3945 45.7006 22.4659 45.929 22.5943 46.1431C22.7228 46.3573 22.9226 46.5428 23.1653 46.6856C23.408 46.8283 23.7077 46.8997 24.0646 46.8997C24.5214 46.8997 24.8783 46.7855 25.121 46.5286C25.3636 46.2716 25.4921 45.9719 25.4921 45.5864C25.4921 45.2581 25.4064 44.9869 25.2351 44.7871C25.0638 44.5872 24.8497 44.4159 24.6071 44.3017C24.3644 44.1875 24.0075 44.0591 23.5793 43.9163C23.0654 43.745 22.6657 43.588 22.3517 43.4453C22.0377 43.3025 21.7807 43.0741 21.5666 42.7744C21.3524 42.4746 21.2383 42.0892 21.2383 41.6038C21.2383 41.1899 21.3382 40.8187 21.538 40.4904C21.7379 40.1764 22.0233 39.9194 22.4088 39.7482C22.7799 39.5769 23.2367 39.4912 23.7363 39.4912C24.5214 39.4912 25.1637 39.6768 25.6205 40.0622C26.0916 40.4476 26.3485 40.9329 26.4342 41.5325H25.3208C25.2637 41.2184 25.0924 40.9329 24.8354 40.6903C24.5642 40.4476 24.2074 40.3191 23.7506 40.3191C23.3366 40.3191 22.994 40.4333 22.7514 40.6475C22.4944 40.8616 22.3802 41.1756 22.3802 41.561C22.3802 41.8751 22.4659 42.132 22.6229 42.3176C22.7942 42.5174 22.994 42.6602 23.2367 42.7744C23.4794 42.8885 23.8219 43.0027 24.2359 43.1455C24.7498 43.3168 25.1638 43.4738 25.4921 43.6308C25.8061 43.7878 26.0773 44.0162 26.2914 44.316C26.5056 44.6158 26.6198 45.0297 26.6198 45.5436C26.5912 45.9148 26.5056 46.2716 26.32 46.5999Z" fill="#292F36"/>
<path d="M31.8878 39.5762V47.627H30.8457V39.5762H31.8878Z" fill="#292F36"/>
<path d="M42.4233 40.1903C43.0656 40.6613 43.4938 41.2894 43.708 42.0888H42.6088C42.4233 41.6034 42.0949 41.2038 41.6524 40.9183C41.2099 40.6185 40.6818 40.4758 40.068 40.4758C39.5255 40.4758 39.0259 40.6042 38.5977 40.8612C38.1694 41.1181 37.8269 41.475 37.5699 41.946C37.3273 42.4171 37.1988 42.9738 37.1988 43.6162C37.1988 44.2728 37.3273 44.8438 37.5699 45.3148C37.8126 45.7859 38.1694 46.157 38.6119 46.414C39.0545 46.6709 39.5684 46.7994 40.1536 46.7994C40.6532 46.7994 41.0957 46.6852 41.5097 46.4853C41.9236 46.2712 42.2519 45.9572 42.5232 45.5575C42.7944 45.1578 42.9371 44.6725 42.9942 44.13H39.8253V43.3592H43.865V44.3156C43.7936 44.958 43.5938 45.5289 43.2655 46.0571C42.9371 46.5853 42.4946 46.9849 41.9379 47.2847C41.3812 47.5845 40.7531 47.7415 40.0394 47.7415C39.2686 47.7415 38.5834 47.5702 37.9839 47.2276C37.3843 46.885 36.9275 46.3997 36.5992 45.7716C36.2709 45.1578 36.0996 44.4441 36.0996 43.6447C36.0996 42.8453 36.2709 42.1316 36.5992 41.5178C36.9275 40.904 37.3986 40.4044 37.9839 40.0618C38.5691 39.7192 39.2543 39.5336 40.0251 39.5336C40.9958 39.5051 41.7809 39.7335 42.4233 40.1903Z" fill="#292F36"/>
<path d="M54.3993 47.627H53.3573L49.1748 41.2606V47.627H48.1328V39.5762H49.1748L53.3573 45.9426V39.5762H54.3993V47.627Z" fill="#292F36"/>
<path d="M69.4157 46.5999C69.2301 46.9282 68.9589 47.1995 68.5878 47.3993C68.2166 47.5991 67.7599 47.7133 67.2032 47.7133C66.675 47.7133 66.1897 47.6134 65.7757 47.4279C65.3618 47.228 65.0334 46.9711 64.7765 46.6285C64.5338 46.2859 64.3911 45.9005 64.3483 45.4722H65.4616C65.4902 45.7006 65.5616 45.929 65.6901 46.1431C65.8186 46.3573 66.0183 46.5428 66.261 46.6856C66.5037 46.8283 66.8035 46.8997 67.1603 46.8997C67.6171 46.8997 67.9739 46.7855 68.2166 46.5286C68.4593 46.2716 68.5878 45.9719 68.5878 45.5864C68.5878 45.2581 68.5021 44.9869 68.3308 44.7871C68.1595 44.5872 67.9454 44.4159 67.7028 44.3017C67.4601 44.1875 67.1033 44.0591 66.675 43.9163C66.1611 43.745 65.7614 43.588 65.4474 43.4453C65.1333 43.3025 64.8764 43.0741 64.6623 42.7744C64.4482 42.4746 64.334 42.0892 64.334 41.6038C64.334 41.1899 64.4339 40.8187 64.6337 40.4904C64.8335 40.1764 65.1191 39.9194 65.5045 39.7482C65.8756 39.5769 66.3324 39.4912 66.832 39.4912C67.6171 39.4912 68.2595 39.6768 68.7163 40.0622C69.1873 40.4476 69.4443 40.9329 69.5299 41.5325H68.4165C68.3594 41.2184 68.188 40.9329 67.9311 40.6903C67.6599 40.4476 67.3031 40.3191 66.8463 40.3191C66.4324 40.3191 66.0897 40.4333 65.8471 40.6475C65.5901 40.8616 65.4759 41.1756 65.4759 41.561C65.4759 41.8751 65.5616 42.132 65.7186 42.3176C65.8899 42.5174 66.0897 42.6602 66.3324 42.7744C66.575 42.8885 66.9176 43.0027 67.3316 43.1455C67.8455 43.3168 68.2595 43.4738 68.5878 43.6308C68.9018 43.7878 69.173 44.0162 69.3871 44.316C69.6013 44.6158 69.7154 45.0297 69.7154 45.5436C69.6869 45.9148 69.6013 46.2716 69.4157 46.5999Z" fill="#292F36"/>
<path d="M78.8789 39.5762V40.4184H76.6092V47.627H75.5529V40.4184H73.2832V39.5762H78.8789Z" fill="#292F36"/>
<path d="M83.7322 39.5762V44.401C83.7322 45.1861 83.9035 45.7713 84.2603 46.1567C84.6172 46.5279 85.0883 46.7277 85.7164 46.7277C86.3302 46.7277 86.8012 46.5421 87.1438 46.1567C87.4864 45.7713 87.6577 45.2003 87.6577 44.4152V39.5904H88.6998V44.4152C88.6998 45.5144 88.4286 46.3423 87.8861 46.8847C87.3437 47.4414 86.6156 47.7127 85.7021 47.7127C84.8028 47.7127 84.0748 47.4414 83.5324 46.8847C82.99 46.328 82.7188 45.5144 82.7188 44.4152V39.5904H83.7322V39.5762Z" fill="#292F36"/>
<path d="M99.4487 45.7285C99.1204 46.328 98.635 46.7991 98.007 47.1274C97.3646 47.4557 96.6081 47.627 95.7231 47.627H93.168V39.5762H95.7231C96.6081 39.5762 97.3789 39.7332 98.007 40.0615C98.635 40.3898 99.1204 40.8466 99.4487 41.4604C99.777 42.0742 99.9341 42.7737 99.9341 43.6016C99.9341 44.4152 99.777 45.129 99.4487 45.7285ZM98.0498 45.8855C98.6065 45.3431 98.8778 44.5865 98.8778 43.6016C98.8778 42.6166 98.6065 41.8601 98.0498 41.3177C97.4931 40.7752 96.6938 40.504 95.6374 40.504H94.1957V46.6992H95.6374C96.6795 46.6992 97.4931 46.4279 98.0498 45.8855Z" fill="#292F36"/>
<path d="M105.245 39.5762V47.627H104.203V39.5762H105.245Z" fill="#292F36"/>
<path d="M115.465 40.0047C116.065 40.3616 116.536 40.8469 116.879 41.475C117.221 42.1031 117.392 42.8168 117.392 43.6019C117.392 44.387 117.221 45.1007 116.879 45.7288C116.536 46.3569 116.065 46.8422 115.465 47.1991C114.866 47.556 114.195 47.7272 113.453 47.7272C112.71 47.7272 112.025 47.556 111.426 47.1991C110.826 46.8422 110.341 46.3569 109.998 45.7288C109.656 45.1007 109.484 44.387 109.484 43.6019C109.484 42.8168 109.656 42.1031 109.998 41.475C110.341 40.8469 110.812 40.3616 111.426 40.0047C112.039 39.6479 112.71 39.4766 113.453 39.4766C114.195 39.4766 114.866 39.6479 115.465 40.0047ZM111.954 40.8326C111.511 41.0896 111.169 41.4464 110.926 41.9318C110.683 42.4028 110.555 42.9595 110.555 43.6019C110.555 44.23 110.683 44.7867 110.926 45.272C111.169 45.7574 111.511 46.1142 111.954 46.3712C112.396 46.6281 112.882 46.7566 113.438 46.7566C113.981 46.7566 114.48 46.6281 114.923 46.3712C115.365 46.1142 115.708 45.7431 115.951 45.272C116.193 44.801 116.322 44.2443 116.322 43.6162C116.322 42.9738 116.193 42.4171 115.951 41.9461C115.708 41.475 115.365 41.1039 114.923 40.8469C114.48 40.59 113.995 40.4615 113.438 40.4615C112.896 40.4472 112.396 40.5757 111.954 40.8326Z" fill="#292F36"/>
</svg>
