<svg width="86" height="87" viewBox="0 0 86 87" fill="none" xmlns="http://www.w3.org/2000/svg">
<path d="M58.7669 76.3749H55.9003V69.2082V14.7415C55.9003 14.4549 55.7569 14.0249 55.6136 13.8815L51.4569 1.41154C51.3136 0.838203 50.7403 0.408203 50.1669 0.408203C49.5936 0.408203 49.0203 0.838203 48.8769 1.41154L44.7203 13.8815C44.5769 14.1682 44.4336 14.4549 44.4336 14.7415V69.2082V84.9749C44.4336 85.8349 45.0069 86.4082 45.8669 86.4082H54.4669C55.3269 86.4082 55.9003 85.8349 55.9003 84.9749V79.2415H60.2003C61.0603 79.2415 61.6336 78.6682 61.6336 77.8082V34.8082H58.7669V76.3749ZM47.3003 16.1749H53.0336V67.7749H47.3003V16.1749ZM50.1669 6.4282L52.4603 13.3082H47.8736L50.1669 6.4282ZM53.0336 83.5415H47.3003V70.6415H53.0336V83.5415Z" fill="#CDA274"/>
<path d="M84.5662 0.408203H68.7995C67.9395 0.408203 67.3662 0.981536 67.3662 1.84154V84.9749C67.3662 85.8349 67.9395 86.4082 68.7995 86.4082H84.5662C85.4262 86.4082 85.9995 85.8349 85.9995 84.9749V1.84154C85.9995 0.981536 85.4262 0.408203 84.5662 0.408203ZM83.1329 83.5415H70.2329V73.5082H77.3995V70.6415H70.2329V59.1749H77.3995V56.3082H70.2329V44.8415H77.3995V41.9749H70.2329V30.5082H77.3995V27.6415H70.2329V16.1749H77.3995V13.3082H70.2329V3.27487H83.1329V83.5415Z" fill="#CDA274"/>
<path d="M20.0667 14.7412C9.03 14.7412 0 23.7712 0 34.8079C0 42.5479 4.44333 49.5712 11.4667 52.8679V63.4745V70.6412C11.4667 71.5012 12.04 72.0745 12.9 72.0745H18.6333V76.3745H21.5V72.0745H27.2333C28.0933 72.0745 28.6667 71.5012 28.6667 70.6412V63.4745V52.8679C35.69 49.5712 40.1333 42.5479 40.1333 34.8079C40.1333 23.7712 31.1033 14.7412 20.0667 14.7412ZM25.8 69.2079H14.3333V64.9079H25.8V69.2079ZM26.66 50.7179C26.0867 50.8612 25.8 51.4345 25.8 52.0079V62.0412H14.3333V59.1745H21.5V56.3079H14.3333V52.0079C14.3333 51.4345 14.0467 50.8612 13.4733 50.7179C7.02333 47.9945 2.86667 41.6879 2.86667 34.8079C2.86667 25.3479 10.6067 17.6079 20.0667 17.6079C29.5267 17.6079 37.2667 25.3479 37.2667 34.8079C37.2667 41.6879 33.11 47.9945 26.66 50.7179Z" fill="#CDA274"/>
<path d="M23.3637 26.6387L20.067 29.9353L16.7703 26.6387L14.7637 28.6453L18.6337 32.5153V47.7087H21.5003V32.5153L25.3703 28.6453L23.3637 26.6387Z" fill="#CDA274"/>
</svg>
