<svg width="90" height="91" viewBox="0 0 90 91" fill="none" xmlns="http://www.w3.org/2000/svg">
<path d="M90 42.6095V38.9641L46.9216 7.77076H43.0784L33.3871 14.7875V9.22237H36.2903V0.512695H7.25806V9.22237H10.1613V31.6062L0 38.9641V42.6095H7.25806V64.3837H0V84.7062H7.25806V90.5127H82.7419V60.0288C86.7448 60.0288 90 56.7736 90 52.7708C90 48.7679 86.7448 45.5127 82.7419 45.5127V42.6095H90ZM10.1613 3.41592H33.3871V6.31915H10.1613V3.41592ZM30.4839 9.22237V16.8905L13.0645 29.505V9.22237H30.4839ZM5.80645 75.9966V81.803H2.90323V67.2869H69.6774V81.803H66.7742V75.9966H63.871V81.803H60.9677V75.9966H58.0645V81.803H55.1613V75.9966H52.2581V81.803H49.3548V75.9966H46.4516V81.803H43.5484V75.9966H40.6452V81.803H37.7419V75.9966H34.8387V81.803H31.9355V75.9966H29.0323V81.803H26.129V75.9966H23.2258V81.803H20.3226V75.9966H17.4194V81.803H14.5161V75.9966H11.6129V81.803H8.70968V75.9966H5.80645ZM79.8387 87.6095H10.1613V84.7062H72.5807V64.3837H10.1613V42.6095H79.8387V45.5127H27.1415L16.2544 52.7708L27.1415 60.0288H79.8387V87.6095ZM76.9355 48.4159V57.1256H74.0323V48.4159H76.9355ZM30.4839 51.3191V48.4159H71.129V51.3191H30.4839ZM71.129 54.2224V57.1256H30.4839V54.2224H71.129ZM27.5806 48.7099V56.8335L21.4875 52.7708L27.5806 48.7099ZM87.0968 52.7708C87.0968 55.1714 85.1425 57.1256 82.7419 57.1256H79.8387V48.4159H82.7419C85.1425 48.4159 87.0968 50.3702 87.0968 52.7708ZM3.92661 39.7062L44.0183 10.674H45.9817L86.0734 39.7062H3.92661Z" fill="#CDA274"/>
<path d="M45 15.0283C38.5966 15.0283 33.3871 20.2378 33.3871 26.6412C33.3871 33.0446 38.5966 38.2541 45 38.2541C51.4034 38.2541 56.6129 33.0446 56.6129 26.6412C56.6129 20.2378 51.4034 15.0283 45 15.0283ZM45 35.3509C40.197 35.3509 36.2903 31.4442 36.2903 26.6412C36.2903 21.8382 40.197 17.9315 45 17.9315C49.803 17.9315 53.7097 21.8382 53.7097 26.6412C53.7097 31.4442 49.803 35.3509 45 35.3509Z" fill="#CDA274"/>
</svg>
