<svg width="93" height="93" viewBox="0 0 93 93" fill="none" xmlns="http://www.w3.org/2000/svg">
<path d="M92.5 89.835H89.5322V92.8027H92.5V89.835Z" fill="#CDA274"/>
<path d="M71.7258 15.6414V3.77048H47.9839V0.802734H45.0161V3.77048H21.2742V35.8332L12.371 30.6935V30.4802H12.0037L11.6828 30.2947L11.5752 30.4802H0.5V51.2543C0.5 54.5281 3.16169 57.1898 6.43548 57.1898H21.2742V63.1253H34.3026L28.9606 89.835H0.5V92.8027H86.5645V89.835H64.0394L58.6974 63.1253H71.7258V39.3834H83.5968V36.4156H81.0445L83.7303 25.6761L78.2289 18.8002C83.799 19.7759 88.0484 24.6356 88.0484 30.4802H91.0161C91.0161 25.6242 88.6605 21.3173 85.0417 18.6092H92.5V15.6414H71.7258ZM9.40323 51.2543C9.40323 52.8903 8.07145 54.2221 6.43548 54.2221C4.79952 54.2221 3.46774 52.8903 3.46774 51.2543V33.4479H9.40323V51.2543ZM20.3709 39.7822L23.3386 44.9201L13.7491 50.4586L19.6827 40.1791L20.3709 39.7822ZM12.371 35.0393L12.7698 34.3475L17.9077 37.3152L12.371 46.9085V35.0393ZM13.163 54.2221L23.4444 48.2866H24.2419V54.2221H13.163ZM45.0161 89.835H31.9877L37.3297 63.1253H45.0161V89.835ZM61.0123 89.835H47.9839V63.1253H55.6703L61.0123 89.835ZM68.6245 25.6761L71.3103 36.4156H68.7581V60.1576H24.2419V57.1898H27.2097V46.1127L27.3933 46.0052L27.2097 45.688V45.3189H26.9964L24.2419 40.5482V6.73822H68.7581V15.6414H59.8548V18.6092H67.3131C63.6944 21.3173 61.3387 25.6242 61.3387 30.4802H64.3065C64.3065 24.6356 68.5559 19.7759 74.126 18.7984L68.6245 25.6761ZM80.4955 26.3828L77.9877 36.4156H74.3671L71.8594 26.381L74.6936 22.8382V28.9963H77.6613V22.8401L80.4955 26.3828Z" fill="#CDA274"/>
<path d="M33.1451 12.6736H30.1774V15.6414H33.1451V12.6736Z" fill="#CDA274"/>
<path d="M62.8225 51.2543H59.8548V54.222H62.8225V51.2543Z" fill="#CDA274"/>
<path d="M59.8549 33.4478C59.8549 26.0841 53.8637 20.093 46.5 20.093C44.0999 20.093 41.8499 20.7385 39.9005 21.8514L35.8291 16.2535L33.429 17.9989L37.5059 23.6042C34.8331 26.047 33.1452 29.549 33.1452 33.4478C33.1452 40.8115 39.1363 46.8027 46.5 46.8027C48.9002 46.8027 51.1501 46.1572 53.0995 45.0443L57.1709 50.6422L59.5711 48.8968L55.4941 43.2915C58.167 40.8486 59.8549 37.3467 59.8549 33.4478ZM46.5 43.8349C40.7741 43.8349 36.1129 39.1737 36.1129 33.4478C36.1129 30.5357 37.3223 27.9019 39.2606 26.0155L51.343 42.6311C49.8944 43.3953 48.2491 43.8349 46.5 43.8349ZM41.657 24.2664C43.1057 23.5003 44.7509 23.0607 46.5 23.0607C52.2259 23.0607 56.8871 27.7219 56.8871 33.4478C56.8871 36.3599 55.6778 38.9938 53.7395 40.8802L41.657 24.2664Z" fill="#CDA274"/>
</svg>
