<svg width="87" height="95" viewBox="0 0 87 95" fill="none" xmlns="http://www.w3.org/2000/svg">
<path d="M87 21.1797V0.617188H57.3407V32.9297H51.4088V50.5547H25.7053V68.1797H0V94.6172H80.0801V32.9297H60.3066V21.1797H87ZM60.3066 3.55469H84.0341V18.2422H60.3066V3.55469ZM28.6713 53.4922H51.4107V58.3886H28.6713V53.4922ZM2.96593 71.1172H25.7053V76.0136H2.96593V71.1172ZM77.1142 91.6797H2.96593V78.9511H25.7053V85.3163H28.6713V61.3261H51.4107V71.6074H54.3766V43.7011H77.1142V91.6797ZM77.1142 35.8672V40.7636H54.3748V35.8672H77.1142Z" fill="#CDA274"/>
<path d="M79.5852 6.49219H72.6653V9.42969H79.5852V6.49219Z" fill="#CDA274"/>
<path d="M79.585 12.3672H64.7554V15.3047H79.585V12.3672Z" fill="#CDA274"/>
<path d="M32.1303 11.3886V14.3261H40.4145L3.39966 50.9843L5.49805 53.0626L42.511 16.4026V22.6484H45.4769V11.3886H32.1303Z" fill="#CDA274"/>
<path d="M9.39072 81.8886H5.43677V84.8261H9.39072V81.8886Z" fill="#CDA274"/>
<path d="M23.2325 81.8886H19.2786V84.8261H23.2325V81.8886Z" fill="#CDA274"/>
<path d="M35.0963 64.2636H31.1423V67.2011H35.0963V64.2636Z" fill="#CDA274"/>
<path d="M48.9378 64.2636H44.9839V67.2011H48.9378V64.2636Z" fill="#CDA274"/>
<path d="M60.8016 46.6387H56.8477V49.5762H60.8016V46.6387Z" fill="#CDA274"/>
<path d="M74.6412 46.6387H70.6873V49.5762H74.6412V46.6387Z" fill="#CDA274"/>
</svg>
